SplineFontDB: 3.0
FontName: Besley-it-Medium
FullName: Besley* Medium
FamilyName: Besley* Medium
Weight: Medium
Copyright: Copyright (c) 2017, Owen Earl,,, (EwonRael@yahoo.com)
Version: 001.1
ItalicAngle: 0
UnderlinePosition: -100
UnderlineWidth: 50
Ascent: 800
Descent: 200
InvalidEm: 0
LayerCount: 2
Layer: 0 0 "Back" 1
Layer: 1 0 "Fore" 0
XUID: [1021 31 -699969567 16487490]
FSType: 0
OS2Version: 0
OS2_WeightWidthSlopeOnly: 0
OS2_UseTypoMetrics: 1
CreationTime: 1460762150
ModificationTime: 1500758476
PfmFamily: 17
TTFWeight: 500
TTFWidth: 5
LineGap: 100
VLineGap: 0
OS2TypoAscent: 800
OS2TypoAOffset: 0
OS2TypoDescent: -200
OS2TypoDOffset: 0
OS2TypoLinegap: 100
OS2WinAscent: 900
OS2WinAOffset: 0
OS2WinDescent: 300
OS2WinDOffset: 0
HheadAscent: 900
HheadAOffset: 0
HheadDescent: -200
HheadDOffset: 0
OS2CapHeight: 700
OS2XHeight: 460
OS2FamilyClass: 1024
OS2Vendor: 'PfEd'
OS2UnicodeRanges: 00000001.00000000.00000000.00000000
Lookup: 5 0 0 "'calt' Contextual Alternates lookup 1" { "'calt' Contextual Alternates lookup 1-1"  } ['calt' ('DFLT' <'dflt' > 'grek' <'dflt' > 'latn' <'dflt' > ) ]
Lookup: 1 0 0 "'ss01' Style Set 1 lookup 2" { "'ss01' Style Set 1 lookup 2-1"  } ['ss01' ('DFLT' <'dflt' > 'grek' <'dflt' > 'latn' <'dflt' > ) ]
Lookup: 4 0 1 "'liga' Standard Ligatures lookup 0" { "Not your mama's contextual ligatures"  } ['liga' ('DFLT' <'dflt' > 'grek' <'dflt' > 'latn' <'dflt' > ) ]
Lookup: 258 0 0 "Kern like there's no tomorrow" { "Get it right" [150,0,5] } ['kern' ('DFLT' <'dflt' > 'grek' <'dflt' > 'latn' <'dflt' > ) ]
MarkAttachClasses: 1
DEI: 91125
KernClass2: 19 21 "Get it right"
 3 A L
 15 B R G C U J S N
 3 D O
 7 E H I Z
 5 F P Y
 3 K X
 3 Q M
 3 V W
 9 a h m n u
 7 b e o p
 3 c q
 7 d j l i
 3 k x
 9 r v w y g
 68 quotedbl quotesingle quoteleft quoteright quotedblleft quotedblright
 1 f
 1 t
 1 T
 3 A J
 31 B D E F H I K L M N P R uniFFFD
 7 C G O Q
 3 S Z
 3 V W
 1 U
 1 X
 1 Y
 5 a g s
 7 b h k l
 9 c d e o q
 3 f i
 5 p t u
 5 m n r
 3 v w
 1 z

StartChar: ampersand
Encoding: 38 38 0
Width: 870
Flags: HMW
LayerCount: 2
Fore
SplineSet
580 460 m 2
 746 460 l 2
 755 460 763 461 769 461 c 0
 779 461 785 458 785 442 c 2
 785 412 l 2
 785 409 785 406 785 403 c 0
 785 387 784 385 762 385 c 2
 732 385 l 2
 703 385 702 385 697 362 c 0
 680 286 645 213 596 152 c 0
 589 143 586 137 586 131 c 0
 586 121 594 114 604 98 c 0
 619 75 627 75 666 75 c 2
 730 75 l 2
 735 75 739 75 743 75 c 0
 767 75 770 73 770 40 c 2
 770 22 l 2
 770 2 762 -1 749 -1 c 0
 741 -1 731 0 720 0 c 0
 667 0 613 0 560 0 c 0
 521 0 521 8 506 30 c 0
 497 43 491 48 485 48 c 0
 478 48 470 41 454 32 c 0
 399 3 337 -15 270 -15 c 0
 127 -15 1 57 1 200 c 0
 1 328 90 382 190 422 c 0
 217 433 231 435 231 445 c 0
 231 451 226 458 217 472 c 2
 205 490 l 2
 180 529 159 578 159 613 c 0
 159 703 244 765 380 765 c 0
 507 765 586 715 586 635 c 0
 586 540 519 493 437 456 c 0
 410 444 398 441 398 431 c 0
 398 425 402 415 412 400 c 2
 517 234 l 2
 528 217 533 203 541 203 c 0
 546 203 551 208 559 220 c 0
 584 256 603 297 616 338 c 0
 619 348 626 363 626 373 c 0
 626 380 622 385 612 385 c 6
 568 385 l 2
 547 385 545 388 545 402 c 0
 545 405 545 409 545 414 c 2
 545 442 l 2
 545 458 550 461 560 461 c 0
 565 461 572 460 580 460 c 2
227 358 m 0
 182 326 151 284 151 220 c 0
 151 118 211 70 305 70 c 0
 339 70 372 77 402 89 c 0
 431 100 442 107 442 118 c 0
 442 127 435 139 422 158 c 2
 303 340 l 2
 287 365 279 378 266 378 c 0
 257 378 245 371 227 358 c 0
462 630 m 0
 462 667 434 705 379 705 c 0
 322 705 287 673 287 630 c 0
 287 603 304 573 330 530 c 0
 338 517 347 503 357 488 c 1
 372 495 385 503 398 512 c 0
 437 540 462 576 462 630 c 0
EndSplineSet
EndChar

StartChar: period
Encoding: 46 46 1
Width: 240
Flags: HMW
LayerCount: 2
Fore
SplineSet
40 65 m 4
 40 109 76 145 120 145 c 4
 164 145 200 109 200 65 c 4
 200 21 164 -15 120 -15 c 4
 76 -15 40 21 40 65 c 4
EndSplineSet
EndChar

StartChar: zero
Encoding: 48 48 2
Width: 530
Flags: HMW
LayerCount: 2
Fore
SplineSet
180 280 m 0
 180 128 201 50 265 50 c 0
 339 50 350 128 350 280 c 0
 350 432 339 510 265 510 c 4
 201 510 180 432 180 280 c 0
30 280 m 0
 30 473 122 575 265 575 c 4
 418 575 500 473 500 280 c 0
 500 87 398 -15 265 -15 c 4
 122 -15 30 87 30 280 c 0
EndSplineSet
EndChar

StartChar: one
Encoding: 49 49 3
Width: 530
VWidth: 1155
Flags: HMW
LayerCount: 2
Fore
SplineSet
430 0 m 6
 85 0 l 2
 57 0 55 3 55 22 c 0
 55 26 55 32 55 38 c 0
 55 68 58 70 82 70 c 0
 85 70 88 70 91 70 c 2
 160 70 l 2
 200 70 206 77 206 102 c 0
 206 110 205 121 205 134 c 2
 205 359 l 2
 205 364 205 368 205 372 c 0
 205 393 203 395 174 395 c 2
 106 395 l 2
 98 395 92 394 87 394 c 0
 76 394 72 397 72 415 c 2
 72 441 l 2
 72 465 72 465 96 465 c 0
 183 466 235 474 277 551 c 0
 285 566 286 590 312 590 c 2
 326 590 l 2
 338 590 340 587 340 579 c 0
 340 576 340 571 340 566 c 2
 340 122 l 2
 340 74 344 70 378 70 c 0
 385 70 393 70 403 70 c 2
 439 70 l 2
 480 70 480 70 480 29 c 0
 480 3 473 -1 458 -1 c 0
 451 -1 441 0 430 0 c 6
EndSplineSet
EndChar

StartChar: two
Encoding: 50 50 4
Width: 530
VWidth: 1155
Flags: HMW
LayerCount: 2
Fore
SplineSet
509 132 m 4
 502 7 444 -35 360 -35 c 0
 263 -35 228 25 155 25 c 0
 129 25 112 19 100 7 c 0
 85 -7 92 -20 60 -20 c 2
 40 -20 l 2
 28 -20 24 -11 24 -1 c 0
 24 11 28 25 30 34 c 0
 51 150 139 225 242 269 c 0
 345 313 352 356 352 420 c 0
 352 484 321 523 252 523 c 0
 188 523 140 499 140 477 c 0
 140 459 202 464 202 398 c 0
 202 351 162 320 125 320 c 0
 86 320 41 348 41 406 c 0
 41 508 140 575 262 575 c 0
 403 575 493 520 493 410 c 0
 493 330 421 254 257 205 c 0
 210 191 169 165 138 132 c 0
 115 107 105 97 105 95 c 0
 105 93 125 108 156 119 c 0
 169 124 184 127 200 127 c 0
 280 127 300 83 366 83 c 0
 407 83 437 96 448 126 c 0
 455 144 445 157 472 157 c 2
 486 157 l 2
 506 157 509 156 509 142 c 0
 509 139 509 136 509 132 c 4
EndSplineSet
EndChar

StartChar: three
Encoding: 51 51 5
Width: 530
VWidth: 1155
Flags: HMW
LayerCount: 2
Fore
SplineSet
25 -1 m 0
 25 52 60 85 99 85 c 0
 136 85 166 64 166 17 c 0
 166 -29 124 -31 124 -54 c 0
 124 -81 162 -113 236 -113 c 0
 335 -113 359 -34 359 40 c 0
 359 105 341 184 241 202 c 0
 211 207 197 197 197 235 c 0
 197 271 205 263 235 267 c 0
 329 280 339 344 339 401 c 0
 339 485 305 523 236 523 c 0
 192 523 154 495 154 473 c 0
 154 450 196 450 196 404 c 0
 196 357 166 336 129 336 c 0
 90 336 55 364 55 412 c 0
 55 494 124 575 256 575 c 0
 377 575 480 521 480 401 c 0
 480 341 465 290 401 259 c 0
 369 244 335 244 335 238 c 0
 335 235 346 230 373 220 c 4
 471 185 500 116 500 40 c 0
 500 -70 407 -165 256 -165 c 0
 94 -165 25 -93 25 -1 c 0
EndSplineSet
EndChar

StartChar: four
Encoding: 52 52 6
Width: 530
VWidth: 1155
Flags: HMW
LayerCount: 2
Fore
SplineSet
515 -109 m 6
 515 -133 l 2
 515 -148 510 -151 501 -151 c 0
 496 -151 489 -150 481 -150 c 2
 244 -150 l 2
 220 -150 220 -150 220 -126 c 2
 220 -106 l 2
 220 -101 220 -98 220 -95 c 0
 220 -83 222 -80 240 -80 c 2
 271 -80 l 2
 302 -80 305 -76 305 -55 c 0
 305 -50 305 -44 305 -36 c 2
 305 31 l 2
 305 52 299 56 287 56 c 0
 281 56 275 55 266 55 c 2
 76 55 l 2
 71 55 67 55 63 55 c 0
 38 55 35 57 35 91 c 0
 35 113 42 122 49 137 c 0
 114 267 251 406 272 529 c 0
 277 560 274 560 309 560 c 2
 379 560 l 2
 398 560 404 554 404 543 c 0
 404 535 401 524 398 513 c 0
 368 384 222 282 142 173 c 0
 131 159 116 145 116 136 c 0
 116 129 124 125 146 125 c 2
 274 125 l 2
 276 125 277 125 279 125 c 0
 304 125 305 126 305 155 c 2
 305 235 l 2
 305 272 327 270 351 287 c 0
 372 302 392 321 406 348 c 0
 412 359 410 370 428 370 c 0
 444 370 440 363 440 349 c 2
 440 157 l 2
 440 154 440 151 440 148 c 0
 440 128 442 125 468 125 c 2
 486 125 l 2
 491 125 496 125 499 125 c 0
 507 125 510 123 510 109 c 2
 510 83 l 2
 510 77 510 72 510 68 c 0
 510 59 508 55 492 55 c 2
 462 55 l 2
 442 55 440 53 440 40 c 0
 440 36 440 31 440 25 c 2
 440 -38 l 2
 440 -47 439 -54 439 -60 c 0
 439 -75 443 -80 468 -80 c 2
 494 -80 l 2
 513 -80 515 -83 515 -95 c 0
 515 -99 515 -103 515 -109 c 6
EndSplineSet
EndChar

StartChar: five
Encoding: 53 53 7
Width: 530
VWidth: 1155
Flags: HMW
LayerCount: 2
Fore
SplineSet
35 -11 m 0
 35 37 65 80 114 80 c 0
 161 80 177 44 177 7 c 0
 177 -41 134 -44 134 -62 c 0
 134 -80 172 -108 226 -108 c 0
 325 -108 359 -44 359 60 c 0
 359 194 335 256 246 256 c 0
 207 256 186 249 167 234 c 0
 152 223 143 197 111 197 c 2
 87 197 l 2
 68 197 63 203 63 213 c 0
 63 222 67 233 68 247 c 2
 100 528 l 2
 104 559 99 565 135 565 c 2
 247 565 l 0
 301 565 331 561 352 561 c 0
 373 561 383 565 397 580 c 0
 405 588 406 597 425 597 c 2
 445 597 l 2
 461 597 464 596 464 588 c 0
 464 585 464 581 463 575 c 0
 461 551 459 525 453 505 c 0
 435 442 401 435 185 435 c 0
 178 435 173 436 168 436 c 0
 158 436 153 433 152 419 c 2
 142 329 l 2
 141 316 140 307 140 301 c 0
 140 291 141 288 145 288 c 0
 152 288 166 298 188 305 c 4
 210 312 236 315 268 315 c 0
 429 315 500 220 500 80 c 0
 500 -70 377 -160 236 -160 c 0
 114 -160 35 -93 35 -11 c 0
EndSplineSet
EndChar

StartChar: six
Encoding: 54 54 8
Width: 530
VWidth: 1155
Flags: HMW
LayerCount: 2
Fore
SplineSet
165 260 m 0
 165 156 190 40 279 40 c 0
 358 40 365 146 365 230 c 0
 365 344 343 406 274 406 c 0
 201 406 165 340 165 260 c 0
505 230 m 0
 505 110 420 -15 269 -15 c 0
 98 -15 25 110 25 350 c 0
 25 550 123 725 294 725 c 0
 386 725 460 683 460 601 c 0
 460 543 425 525 386 525 c 0
 349 525 319 546 319 593 c 0
 319 639 353 638 353 651 c 0
 353 664 338 673 299 673 c 0
 204 673 176 572 168 448 c 0
 167 440 167 433 167 428 c 0
 167 417 169 413 171 413 c 0
 176 413 187 431 204 442 c 4
 227 457 258 465 296 465 c 0
 407 465 505 380 505 230 c 0
EndSplineSet
EndChar

StartChar: seven
Encoding: 55 55 9
Width: 540
VWidth: 1155
Flags: HMW
LayerCount: 2
Fore
SplineSet
33 443 m 0
 46 549 102 585 180 585 c 0
 277 585 312 525 385 525 c 0
 413 525 431 532 443 546 c 0
 453 558 449 570 473 570 c 2
 491 570 l 2
 505 570 509 566 509 560 c 0
 509 555 507 548 504 539 c 0
 481 464 392 338 333 218 c 0
 287 124 274 90 274 46 c 0
 274 -17 332 -16 332 -82 c 0
 332 -129 298 -160 244 -160 c 0
 196 -160 149 -123 149 -44 c 0
 149 55 204 123 264 231 c 0
 294 285 334 346 370 403 c 0
 377 414 385 422 385 426 c 0
 385 427 384 428 381 428 c 0
 378 428 374 427 368 426 c 4
 359 424 350 423 340 423 c 0
 260 423 240 467 174 467 c 0
 133 467 103 454 92 424 c 0
 84 403 94 393 64 393 c 2
 49 393 l 2
 33 393 29 402 29 413 c 0
 29 422 32 433 33 443 c 0
EndSplineSet
EndChar

StartChar: eight
Encoding: 56 56 10
Width: 530
VWidth: 1155
Flags: HMW
LayerCount: 2
Fore
SplineSet
175 190 m 0
 175 106 186 35 265 35 c 0
 344 35 355 106 355 190 c 0
 355 274 344 343 265 343 c 0
 186 343 175 274 175 190 c 0
55 530 m 0
 55 640 134 725 265 725 c 0
 396 725 475 640 475 530 c 0
 475 465 435 414 384 386 c 4
 367 377 356 373 356 369 c 0
 356 365 363 361 381 352 c 4
 444 318 495 269 495 190 c 0
 495 70 406 -15 265 -15 c 0
 124 -15 35 70 35 190 c 0
 35 270 85 323 152 353 c 0
 170 361 178 364 178 367 c 0
 178 371 166 374 145 387 c 0
 96 417 55 466 55 530 c 0
195 530 m 0
 195 456 206 390 265 390 c 0
 324 390 335 456 335 530 c 0
 335 604 324 670 265 670 c 0
 206 670 195 604 195 530 c 0
EndSplineSet
EndChar

StartChar: A
Encoding: 65 65 12
Width: 950
Flags: HMW
LayerCount: 2
Fore
SplineSet
431 542 m 2
 338 335 l 2
 330 317 322 305 322 297 c 0
 322 288 333 285 368 285 c 2
 535 285 l 2
 558 285 565 289 565 297 c 0
 565 306 556 319 550 335 c 2
 471 548 l 2
 462 572 457 583 453 583 c 0
 448 583 442 568 431 542 c 2
546 724 m 2
 788 118 l 2
 799 91 795 75 835 75 c 2
 894 75 l 2
 901 75 907 76 912 76 c 0
 921 76 925 73 925 58 c 2
 925 25 l 2
 925 1 924 0 906 -0 c 0
 903 0 900 0 897 0 c 6
 568 0 l 2
 562 0 557 0 553 -0 c 0
 538 0 535 2 535 26 c 2
 535 52 l 2
 535 72 541 76 553 76 c 0
 559 76 567 75 577 75 c 2
 629 75 l 2
 640 75 644 80 644 86 c 0
 644 97 633 113 629 124 c 2
 606 185 l 2
 598 206 599 210 569 210 c 2
 331 210 l 2
 285 210 282 208 268 177 c 2
 241 116 l 2
 236 105 229 93 229 85 c 0
 229 79 234 75 246 75 c 2
 298 75 l 2
 303 75 307 75 310 75 c 0
 323 75 325 73 325 54 c 2
 325 22 l 2
 325 2 320 -1 308 -1 c 0
 303 -1 297 0 289 0 c 2
 57 0 l 2
 50 0 44 0 40 -0 c 0
 28 0 25 2 25 22 c 2
 25 44 l 2
 25 50 25 54 25 58 c 0
 25 72 27 75 49 75 c 2
 110 75 l 2
 144 75 142 92 152 114 c 2
 433 736 l 2
 443 759 442 765 477 765 c 2
 507 765 l 2
 540 765 537 746 546 724 c 2
EndSplineSet
EndChar

StartChar: B
Encoding: 66 66 13
Width: 800
Flags: HMW
LayerCount: 2
Fore
SplineSet
465 0 m 0
 86 0 l 2
 75 0 65 -1 57 -1 c 0
 43 -1 35 3 35 26 c 2
 35 49 l 2
 35 73 37 75 54 75 c 0
 57 75 61 75 66 75 c 6
 102 75 l 2
 145 75 145 76 145 119 c 2
 145 655 l 2
 145 673 143 675 131 675 c 0
 128 675 125 675 120 675 c 2
 56 675 l 2
 36 675 35 676 35 690 c 0
 35 692 35 696 35 699 c 2
 35 723 l 2
 35 747 40 751 55 751 c 0
 61 751 69 750 78 750 c 2
 445 750 l 0
 596 750 715 695 715 565 c 0
 715 465 651 410 549 389 c 1
 666 372 745 316 745 210 c 0
 745 60 626 0 465 0 c 0
455 75 m 2
 531 75 595 116 595 215 c 0
 595 314 531 350 455 350 c 2
 328 350 l 2
 319 350 312 350 306 350 c 0
 285 350 280 347 280 313 c 2
 280 121 l 2
 280 112 280 105 280 99 c 0
 280 80 283 75 314 75 c 2
 455 75 l 2
334 425 m 2
 445 425 l 2
 511 425 575 451 575 550 c 0
 575 649 511 675 445 675 c 2
 314 675 l 2
 312 675 311 675 309 675 c 0
 281 675 280 674 280 643 c 2
 280 465 l 2
 280 429 285 425 308 425 c 0
 315 425 324 425 334 425 c 2
EndSplineSet
EndChar

StartChar: C
Encoding: 67 67 14
Width: 795
Flags: HMW
LayerCount: 2
Fore
SplineSet
767 264 m 0
 745 106 626 -10 435 -10 c 0
 192 -10 50 152 50 375 c 0
 50 598 207 760 450 760 c 0
 529 760 588 737 632 701 c 0
 644 691 651 679 657 679 c 0
 661 679 664 684 669 695 c 2
 685 732 l 2
 692 749 691 755 717 755 c 0
 727 755 735 756 741 756 c 0
 754 756 760 752 760 730 c 2
 760 523 l 2
 760 518 760 514 760 511 c 0
 760 498 758 495 739 495 c 2
 709 495 l 2
 673 495 680 522 669 546 c 0
 634 624 558 682 455 682 c 0
 311 682 205 547 205 375 c 0
 205 203 291 69 445 69 c 0
 591 69 667 152 689 256 c 0
 694 281 687 295 718 295 c 2
 750 295 l 6
 765 295 769 290 769 281 c 0
 769 276 768 270 767 264 c 0
EndSplineSet
EndChar

StartChar: D
Encoding: 68 68 15
Width: 855
Flags: HMW
LayerCount: 2
Fore
SplineSet
425 0 m 2
 86 0 l 2
 76 0 66 -2 57 -2 c 0
 45 -2 35 2 35 18 c 6
 35 46 l 2
 35 73 38 75 57 75 c 0
 61 75 65 75 70 75 c 2
 124 75 l 2
 143 75 147 88 147 105 c 0
 147 118 145 133 145 146 c 2
 145 656 l 2
 145 673 141 675 131 675 c 0
 127 675 121 675 114 675 c 2
 60 675 l 2
 58 675 57 675 55 675 c 0
 36 675 35 676 35 698 c 2
 35 726 l 2
 35 747 39 750 52 750 c 0
 57 750 64 750 72 750 c 2
 425 750 l 2
 668 750 805 588 805 375 c 0
 805 162 658 0 425 0 c 2
316 75 m 2
 425 75 l 2
 599 75 650 193 650 375 c 0
 650 557 589 675 425 675 c 2
 307 675 l 2
 301 675 297 675 293 675 c 0
 283 675 280 673 280 657 c 2
 280 116 l 2
 280 111 280 107 280 103 c 0
 280 78 282 75 316 75 c 2
EndSplineSet
EndChar

StartChar: E
Encoding: 69 69 16
Width: 735
Flags: HMW
LayerCount: 2
Fore
SplineSet
112 675 m 2
 54 675 l 2
 37 675 35 679 35 689 c 0
 35 693 35 699 35 705 c 2
 35 725 l 2
 35 727 35 728 35 730 c 0
 35 749 36 750 58 750 c 2
 668 750 l 2
 675 750 681 751 686 751 c 0
 695 751 700 748 700 733 c 6
 700 557 l 2
 700 548 701 540 701 533 c 0
 701 522 698 515 680 515 c 2
 650 515 l 2
 631 515 629 521 629 533 c 0
 629 535 629 538 629 541 c 0
 629 544 629 548 629 551 c 0
 622 641 584 675 480 675 c 2
 330 675 l 2
 319 675 309 676 302 676 c 0
 287 676 280 672 280 647 c 2
 280 446 l 2
 280 418 280 418 308 418 c 2
 345 418 l 2
 412 418 446 455 453 509 c 0
 456 528 451 533 473 533 c 2
 502 533 l 2
 519 533 520 534 520 517 c 2
 520 265 l 2
 520 262 520 259 520 256 c 0
 520 240 519 238 497 238 c 2
 479 238 l 2
 454 238 456 239 453 262 c 0
 446 317 413 358 345 358 c 2
 303 358 l 2
 281 358 280 357 280 341 c 0
 280 338 280 335 280 332 c 2
 280 114 l 2
 280 75 281 75 320 75 c 2
 470 75 l 2
 600 75 637 114 640 235 c 0
 641 254 639 255 659 255 c 2
 690 255 l 2
 709 255 710 252 710 239 c 0
 710 237 710 234 710 231 c 2
 710 35 l 2
 710 27 711 21 711 16 c 0
 711 5 708 0 690 0 c 2
 76 0 l 2
 67 0 59 -1 53 -1 c 0
 42 -1 35 2 35 21 c 2
 35 52 l 2
 35 74 36 75 55 75 c 0
 57 75 58 75 60 75 c 2
 114 75 l 2
 142 75 146 80 146 97 c 0
 146 103 145 111 145 120 c 2
 145 651 l 2
 145 673 141 675 127 675 c 0
 123 675 118 675 112 675 c 2
EndSplineSet
EndChar

StartChar: F
Encoding: 70 70 17
Width: 725
Flags: HMW
LayerCount: 2
Fore
SplineSet
120 675 m 2
 59 675 l 2
 56 675 52 675 50 675 c 0
 36 675 35 676 35 696 c 2
 35 732 l 2
 35 748 37 750 47 750 c 0
 51 750 55 750 61 750 c 2
 662 750 l 2
 668 750 672 750 676 750 c 0
 687 750 690 748 690 731 c 2
 690 544 l 2
 690 538 690 534 690 530 c 0
 690 519 688 515 670 515 c 2
 637 515 l 2
 621 515 619 521 619 532 c 0
 619 535 619 538 619 542 c 0
 619 544 619 545 619 547 c 0
 613 640 576 675 470 675 c 2
 313 675 l 2
 306 675 301 675 296 675 c 0
 284 675 280 673 280 654 c 2
 280 437 l 2
 280 430 279 424 279 420 c 0
 279 412 282 408 295 408 c 2
 335 408 l 2
 401 408 443 436 453 487 c 0
 457 505 450 513 473 513 c 2
 506 513 l 2
 519 513 520 514 520 500 c 2
 520 255 l 2
 520 249 521 244 521 240 c 0
 521 232 518 228 505 228 c 6
 472 228 l 2
 450 228 456 234 453 252 c 0
 444 305 402 338 335 338 c 2
 302 338 l 2
 280 338 280 338 280 316 c 2
 280 111 l 2
 280 105 280 100 280 96 c 0
 280 79 282 75 309 75 c 2
 357 75 l 2
 362 75 367 75 370 75 c 0
 377 75 380 74 380 63 c 2
 380 28 l 2
 380 22 380 18 380 14 c 0
 380 3 378 0 361 0 c 2
 59 0 l 2
 35 0 35 1 35 25 c 2
 35 57 l 2
 35 74 37 75 48 75 c 0
 50 75 53 75 56 75 c 2
 126 75 l 2
 144 75 145 77 145 89 c 0
 145 91 145 94 145 97 c 2
 145 660 l 2
 145 673 141 675 133 675 c 0
 129 675 125 675 120 675 c 2
EndSplineSet
EndChar

StartChar: G
Encoding: 71 71 18
Width: 895
Flags: HMW
LayerCount: 2
Fore
SplineSet
535 370 m 6
 851 370 l 2
 857 370 863 370 867 370 c 0
 876 370 880 368 880 352 c 2
 880 326 l 2
 880 307 878 305 865 305 c 0
 862 305 858 305 853 305 c 2
 809 305 l 2
 806 305 803 305 800 305 c 0
 782 305 780 304 780 280 c 2
 780 242 l 2
 780 221 780 206 775 190 c 0
 748 100 630 -10 435 -10 c 0
 207 -10 50 152 50 375 c 0
 50 598 227 760 450 760 c 0
 528 760 593 738 643 704 c 0
 661 692 670 681 676 681 c 0
 682 681 686 689 693 712 c 0
 701 738 697 750 733 750 c 0
 741 750 748 751 754 751 c 0
 764 751 770 748 770 732 c 2
 770 540 l 2
 770 530 771 521 771 514 c 0
 771 503 768 495 751 495 c 2
 721 495 l 2
 692 495 696 498 691 522 c 0
 673 612 606 684 457 684 c 0
 303 684 205 557 205 375 c 0
 205 193 281 65 440 65 c 0
 523 65 585 102 617 149 c 0
 631 169 635 182 635 216 c 2
 635 274 l 2
 635 303 633 305 612 305 c 0
 608 305 604 305 599 305 c 2
 541 305 l 2
 510 305 510 305 510 336 c 0
 510 343 510 349 510 353 c 0
 510 367 513 370 535 370 c 6
EndSplineSet
EndChar

StartChar: H
Encoding: 72 72 19
Width: 920
Flags: HMW
LayerCount: 2
Fore
SplineSet
280 645 m 2
 280 451 l 2
 280 448 280 445 280 442 c 0
 280 427 281 425 302 425 c 2
 596 425 l 2
 600 425 603 425 606 425 c 0
 638 425 640 427 640 465 c 2
 640 657 l 2
 640 673 635 676 626 676 c 0
 621 676 615 675 608 675 c 2
 538 675 l 2
 522 675 520 677 520 687 c 0
 520 691 520 695 520 701 c 2
 520 727 l 2
 520 749 519 750 542 750 c 2
 852 750 l 2
 883 750 885 747 885 724 c 0
 885 720 885 716 885 711 c 0
 885 708 885 705 885 702 c 0
 885 677 883 675 852 675 c 2
 814 675 l 2
 810 675 807 675 804 675 c 0
 776 675 775 673 775 639 c 2
 775 103 l 2
 775 75 776 75 804 75 c 2
 858 75 l 2
 864 75 868 75 872 75 c 0
 882 75 885 73 885 57 c 2
 885 25 l 2
 885 22 885 18 885 16 c 0
 885 2 884 0 864 0 c 2
 540 0 l 2
 522 0 520 2 520 14 c 0
 520 17 520 20 520 25 c 2
 520 45 l 2
 520 73 523 75 545 75 c 0
 548 75 551 75 554 75 c 2
 616 75 l 2
 637 75 640 80 640 93 c 0
 640 98 640 105 640 113 c 2
 640 329 l 2
 640 350 639 350 618 350 c 2
 330 350 l 2
 320 350 312 350 305 350 c 0
 285 350 280 347 280 315 c 2
 280 105 l 2
 280 78 285 74 302 74 c 0
 308 74 316 75 326 75 c 2
 366 75 l 2
 373 75 380 76 385 76 c 0
 395 76 400 73 400 57 c 2
 400 39 l 2
 400 31 400 24 400 19 c 0
 400 4 397 0 372 0 c 2
 62 0 l 2
 59 0 56 0 53 -0 c 0
 37 0 35 1 35 23 c 2
 35 49 l 2
 35 54 35 59 35 62 c 0
 35 72 37 75 54 75 c 2
 106 75 l 2
 114 75 121 75 126 75 c 0
 141 75 145 78 145 103 c 2
 145 647 l 2
 145 672 139 676 123 676 c 0
 117 676 109 675 100 675 c 2
 60 675 l 2
 38 675 34 684 34 699 c 0
 34 707 35 717 35 729 c 0
 35 748 42 751 53 751 c 0
 59 751 67 750 76 750 c 6
 364 750 l 2
 397 750 400 747 400 724 c 0
 400 719 400 713 400 707 c 0
 400 705 400 704 400 702 c 0
 400 676 399 675 370 675 c 2
 310 675 l 2
 280 675 280 675 280 645 c 2
EndSplineSet
EndChar

StartChar: I
Encoding: 73 73 20
Width: 435
Flags: HMW
LayerCount: 2
Fore
SplineSet
280 647 m 2
 280 105 l 0
 280 75 l 1
 310 75 l 0
 378 75 l 2
 380 75 381 75 383 75 c 0
 399 75 400 74 400 55 c 2
 400 19 l 2
 400 2 397 0 386 -0 c 0
 382 0 378 0 372 0 c 2
 60 0 l 2
 56 0 52 0 49 -0 c 0
 38 0 35 2 35 19 c 2
 35 51 l 2
 35 54 35 58 35 60 c 0
 35 74 36 75 56 75 c 2
 122 75 l 2
 125 75 128 75 130 75 c 0
 143 75 145 76 145 95 c 2
 145 651 l 2
 145 673 143 675 127 675 c 0
 123 675 119 675 114 675 c 2
 58 675 l 2
 38 675 34 681 34 693 c 0
 34 699 35 706 35 715 c 0
 35 747 38 750 60 750 c 0
 65 750 72 750 80 750 c 2
 372 750 l 2
 374 750 376 750 378 750 c 0
 395 750 400 749 400 731 c 6
 400 711 l 2
 400 708 400 705 400 702 c 0
 400 678 398 675 368 675 c 6
 310 675 l 2
 308 675 307 675 305 675 c 0
 281 675 280 674 280 647 c 2
EndSplineSet
EndChar

StartChar: J
Encoding: 74 74 21
Width: 626
Flags: HMW
LayerCount: 2
Fore
SplineSet
135 110 m 0
 135 93 149 65 221 65 c 0
 312 65 346 110 346 240 c 2
 346 640 l 2
 346 675 346 675 311 675 c 2
 249 675 l 2
 247 675 246 675 244 675 c 0
 227 675 226 676 226 696 c 2
 226 730 l 2
 226 748 231 751 242 751 c 0
 247 751 253 750 261 750 c 2
 575 750 l 2
 580 750 584 750 588 750 c 0
 597 750 601 748 601 734 c 2
 601 704 l 2
 601 698 601 692 601 688 c 0
 601 679 599 675 583 675 c 2
 525 675 l 2
 520 675 516 675 512 675 c 0
 492 675 481 673 481 647 c 6
 481 270 l 2
 481 100 382 -10 221 -10 c 0
 64 -10 5 75 5 165 c 0
 5 237 54 280 104 280 c 0
 151 280 188 254 188 201 c 0
 188 131 135 138 135 110 c 0
EndSplineSet
EndChar

StartChar: K
Encoding: 75 75 22
Width: 880
Flags: HMW
LayerCount: 2
Fore
SplineSet
860 0 m 2
 562 0 l 2
 534 0 529 7 529 24 c 0
 529 32 530 41 530 53 c 0
 530 73 532 75 545 75 c 0
 549 75 554 75 560 75 c 2
 584 75 l 2
 613 75 622 78 622 84 c 0
 622 91 610 101 599 117 c 2
 433 351 l 2
 423 365 416 371 410 371 c 0
 402 371 395 361 380 346 c 2
 308 277 l 2
 289 259 280 256 280 217 c 2
 280 103 l 2
 280 75 280 75 308 75 c 2
 380 75 l 2
 398 75 401 69 401 59 c 0
 401 54 400 47 400 39 c 0
 400 33 400 27 400 23 c 0
 400 3 397 0 368 0 c 2
 70 0 l 2
 37 0 35 3 35 28 c 0
 35 32 35 36 35 41 c 0
 35 43 35 44 35 46 c 0
 35 74 36 75 68 75 c 2
 116 75 l 2
 142 75 146 82 146 97 c 0
 146 104 145 114 145 125 c 2
 145 649 l 2
 145 652 145 655 145 658 c 0
 145 674 144 675 122 675 c 2
 50 675 l 2
 37 675 34 681 34 690 c 0
 34 696 35 703 35 711 c 2
 35 739 l 2
 35 749 41 751 49 751 c 0
 55 751 62 750 68 750 c 2
 368 750 l 2
 375 750 381 751 386 751 c 0
 396 751 400 748 400 731 c 2
 400 701 l 2
 400 696 400 691 400 688 c 0
 400 678 398 675 382 675 c 2
 310 675 l 2
 303 675 298 675 294 675 c 0
 284 675 280 673 280 655 c 2
 280 383 l 2
 280 358 283 349 288 349 c 0
 295 349 306 368 320 381 c 2
 586 641 l 2
 597 652 615 663 615 669 c 0
 615 673 609 675 590 675 c 2
 540 675 l 2
 527 675 524 680 524 689 c 0
 524 695 525 702 525 709 c 2
 525 723 l 2
 525 749 526 750 549 750 c 0
 551 750 552 750 554 750 c 2
 796 750 l 2
 822 750 825 747 825 730 c 0
 825 725 825 719 825 711 c 0
 825 676 823 675 791 675 c 0
 789 675 788 675 786 675 c 2
 764 675 l 2
 720 675 715 666 694 646 c 2
 526 486 l 2
 512 473 504 467 504 459 c 0
 504 453 508 446 516 435 c 2
 760 109 l 2
 776 88 777 75 816 75 c 2
 866 75 l 2
 887 75 890 70 890 57 c 0
 890 52 890 45 890 37 c 0
 890 31 890 26 890 22 c 0
 890 4 888 0 860 0 c 2
EndSplineSet
EndChar

StartChar: L
Encoding: 76 76 23
Width: 740
Flags: HMW
LayerCount: 2
Fore
SplineSet
118 675 m 2
 74 675 l 2
 65 675 59 674 53 674 c 0
 41 674 35 678 35 699 c 2
 35 735 l 2
 35 749 46 752 60 752 c 0
 71 752 84 750 94 750 c 2
 386 750 l 2
 408 750 410 746 410 732 c 0
 410 728 410 723 410 717 c 2
 410 693 l 2
 410 677 406 675 397 675 c 0
 393 675 388 675 382 675 c 2
 314 675 l 2
 308 675 303 675 299 675 c 0
 283 675 280 673 280 649 c 2
 280 139 l 2
 280 125 279 115 279 106 c 0
 279 83 285 75 324 75 c 2
 465 75 l 2
 570 75 623 109 633 215 c 0
 636 245 628 255 664 255 c 2
 688 255 l 2
 703 255 705 252 705 243 c 0
 705 239 705 235 705 229 c 2
 705 73 l 2
 705 62 707 46 707 32 c 0
 707 14 704 0 688 0 c 2
 68 0 l 2
 61 0 55 -1 50 -1 c 0
 40 -1 35 2 35 17 c 2
 35 39 l 2
 35 44 35 48 35 52 c 0
 35 73 37 75 66 75 c 6
 110 75 l 2
 117 75 122 75 127 75 c 0
 140 75 145 77 145 99 c 2
 145 649 l 2
 145 675 144 675 118 675 c 2
EndSplineSet
EndChar

StartChar: M
Encoding: 77 77 24
Width: 1045
Flags: HMW
LayerCount: 2
Fore
SplineSet
146 675 m 2
 82 675 l 2
 61 675 60 677 60 692 c 0
 60 695 60 698 60 701 c 2
 60 725 l 2
 60 747 65 750 78 750 c 0
 83 750 90 750 98 750 c 2
 294 750 l 2
 342 750 344 749 356 713 c 2
 508 252 l 2
 511 244 514 235 516 226 c 0
 523 196 527 182 531 182 c 0
 535 182 538 198 544 226 c 0
 546 237 549 249 552 260 c 2
 686 701 l 2
 697 737 692 750 742 750 c 2
 956 750 l 2
 982 750 985 747 985 730 c 0
 985 725 985 719 985 711 c 0
 985 709 985 708 985 706 c 0
 985 676 984 675 950 675 c 2
 908 675 l 2
 906 675 905 675 903 675 c 0
 882 675 879 674 879 658 c 0
 879 655 879 651 879 647 c 2
 901 103 l 2
 902 78 906 75 923 75 c 0
 928 75 934 75 942 75 c 2
 1000 75 l 2
 1013 75 1016 70 1016 62 c 0
 1016 57 1015 52 1015 45 c 2
 1015 25 l 2
 1015 23 1015 22 1015 20 c 0
 1015 1 1014 0 992 0 c 2
 678 0 l 2
 672 0 667 0 663 -0 c 0
 654 0 650 2 650 17 c 2
 650 49 l 2
 650 74 651 75 673 75 c 0
 675 75 676 75 678 75 c 2
 736 75 l 2
 763 75 768 82 768 97 c 0
 768 105 766 116 766 129 c 2
 752 519 l 2
 752 525 752 530 752 535 c 0
 752 559 753 583 755 607 c 0
 755 609 755 611 755 613 c 0
 755 624 753 634 749 634 c 0
 746 634 742 626 739 605 c 0
 735 577 729 552 721 527 c 2
 565 21 l 2
 559 1 562 -10 534 -10 c 2
 508 -10 l 2
 460 -10 465 7 454 41 c 2
 279 555 l 2
 272 576 266 597 260 619 c 0
 255 639 251 647 249 647 c 0
 247 647 247 642 247 635 c 0
 247 629 247 622 248 613 c 0
 249 606 249 600 249 593 c 0
 249 578 248 563 247 549 c 2
 230 117 l 2
 230 106 229 98 229 92 c 0
 229 80 233 75 256 75 c 2
 316 75 l 2
 319 75 322 75 325 75 c 0
 343 75 345 73 345 49 c 2
 345 33 l 2
 345 26 345 20 345 16 c 0
 345 4 343 0 322 0 c 2
 68 0 l 2
 59 0 53 -1 47 -1 c 0
 36 -1 30 2 30 21 c 2
 30 57 l 2
 30 74 29 75 46 75 c 2
 128 75 l 2
 144 75 146 82 146 93 c 0
 146 96 146 100 146 104 c 0
 146 106 146 107 146 109 c 2
 170 641 l 2
 170 650 171 656 171 661 c 0
 171 672 167 675 146 675 c 2
EndSplineSet
EndChar

StartChar: N
Encoding: 78 78 25
Width: 885
Flags: HMW
LayerCount: 2
Fore
SplineSet
116 675 m 2
 74 675 l 2
 66 675 59 675 54 675 c 0
 40 675 35 678 35 701 c 2
 35 729 l 2
 35 748 38 750 50 750 c 0
 54 750 58 750 64 750 c 2
 252 750 l 2
 284 750 291 749 304 731 c 6
 610 318 l 2
 623 300 637 283 648 262 c 0
 663 235 671 219 675 219 c 0
 680 219 680 239 680 286 c 2
 680 633 l 2
 680 641 681 650 681 657 c 0
 681 667 679 675 666 675 c 2
 604 675 l 2
 598 675 593 675 589 675 c 0
 573 675 570 677 570 701 c 2
 570 731 l 2
 570 748 579 752 591 752 c 0
 599 752 609 750 620 750 c 2
 832 750 l 2
 838 750 844 750 848 750 c 0
 867 750 870 747 870 719 c 0
 870 709 871 701 871 694 c 0
 871 681 868 675 848 675 c 2
 790 675 l 2
 768 675 764 668 764 655 c 0
 764 648 765 640 765 629 c 2
 765 45 l 2
 765 38 765 32 765 25 c 0
 765 6 763 -10 746 -10 c 6
 716 -10 l 2
 679 -10 676 9 661 29 c 2
 288 530 l 2
 273 550 260 571 247 594 c 0
 236 614 230 623 227 623 c 0
 224 623 223 617 223 608 c 0
 223 593 225 568 225 542 c 2
 225 125 l 2
 225 114 224 106 224 99 c 0
 224 81 229 75 258 75 c 2
 308 75 l 2
 315 75 321 75 325 75 c 0
 337 75 340 73 340 53 c 2
 340 25 l 2
 340 3 335 -1 321 -1 c 0
 315 -1 307 0 298 0 c 2
 62 0 l 2
 35 0 35 0 35 27 c 2
 35 57 l 2
 35 73 39 75 48 75 c 0
 52 75 58 75 64 75 c 2
 106 75 l 2
 140 75 140 75 140 109 c 2
 140 647 l 2
 140 650 140 653 140 656 c 0
 140 673 139 675 116 675 c 2
EndSplineSet
EndChar

StartChar: O
Encoding: 79 79 26
Width: 860
Flags: HMW
LayerCount: 2
Fore
SplineSet
50 375 m 0
 50 588 187 760 430 760 c 0
 673 760 810 588 810 375 c 0
 810 162 663 -10 430 -10 c 0
 187 -10 50 162 50 375 c 0
205 375 m 0
 205 193 276 60 430 60 c 0
 594 60 655 193 655 375 c 0
 655 557 584 690 430 690 c 0
 276 690 205 557 205 375 c 0
EndSplineSet
EndChar

StartChar: P
Encoding: 80 80 27
Width: 725
Flags: HMW
LayerCount: 2
Fore
SplineSet
110 675 m 2
 58 675 l 2
 35 675 35 675 35 698 c 2
 35 734 l 2
 35 749 44 752 55 752 c 0
 63 752 73 750 82 750 c 6
 410 750 l 2
 601 750 690 675 690 545 c 0
 690 415 601 320 410 320 c 2
 326 320 l 2
 316 320 307 321 300 321 c 0
 288 321 280 318 280 300 c 2
 280 112 l 2
 280 107 280 103 280 99 c 0
 280 77 282 75 312 75 c 2
 364 75 l 2
 373 75 383 77 391 77 c 0
 402 77 410 74 410 60 c 2
 410 28 l 2
 410 1 409 0 385 -0 c 0
 383 0 382 0 380 0 c 2
 68 0 l 2
 65 0 62 0 59 -0 c 0
 37 0 35 2 35 30 c 2
 35 50 l 2
 35 74 37 75 55 75 c 0
 58 75 61 75 64 75 c 2
 126 75 l 2
 143 75 146 83 146 94 c 0
 146 101 145 110 145 120 c 2
 145 636 l 2
 145 640 145 643 145 646 c 0
 145 673 143 675 110 675 c 2
326 395 m 2
 410 395 l 2
 496 395 540 456 540 545 c 0
 540 634 496 675 410 675 c 2
 312 675 l 2
 282 675 280 673 280 651 c 0
 280 647 280 643 280 638 c 2
 280 436 l 2
 280 397 282 395 312 395 c 0
 316 395 321 395 326 395 c 2
EndSplineSet
EndChar

StartChar: Q
Encoding: 81 81 28
Width: 870
Flags: HMW
LayerCount: 2
Fore
SplineSet
50 375 m 0
 50 588 187 760 430 760 c 0
 673 760 810 588 810 375 c 0
 810 244 755 128 657 58 c 0
 643 48 632 45 632 36 c 0
 632 32 635 27 640 19 c 0
 656 -3 673 -17 693 -17 c 0
 729 -17 753 4 767 36 c 0
 779 64 769 82 812 82 c 0
 841 82 848 79 848 67 c 0
 848 61 846 52 844 40 c 4
 824 -58 767 -145 685 -145 c 0
 610 -145 576 -86 549 -18 c 0
 543 -3 540 1 532 1 c 0
 527 1 521 -1 510 -3 c 0
 485 -8 458 -10 430 -10 c 0
 187 -10 50 162 50 375 c 0
606 154 m 0
 639 210 655 286 655 375 c 0
 655 557 584 690 430 690 c 0
 276 690 205 557 205 375 c 0
 205 315 213 260 229 214 c 0
 237 193 240 184 242 184 c 0
 245 184 247 201 255 226 c 0
 272 277 310 323 377 323 c 0
 463 323 516 249 558 170 c 0
 570 147 576 130 584 130 c 0
 589 130 596 137 606 154 c 0
490 120 m 0
 465 161 432 190 379 190 c 0
 343 190 317 175 304 154 c 0
 297 144 294 134 294 126 c 0
 294 112 303 101 316 92 c 0
 347 71 386 60 430 60 c 0
 449 60 467 62 484 66 c 0
 502 70 509 75 509 83 c 0
 509 92 499 105 490 120 c 0
EndSplineSet
EndChar

StartChar: R
Encoding: 82 82 29
Width: 805
Flags: HMW
LayerCount: 2
Fore
SplineSet
819 58 m 0
 791 22 744 -10 690 -10 c 0
 427 -10 656 335 400 335 c 2
 320 335 l 2
 319 335 317 335 316 335 c 0
 311 335 305 335 300 335 c 0
 289 335 280 333 280 320 c 2
 280 100 l 2
 280 78 283 75 297 75 c 0
 301 75 307 75 314 75 c 2
 362 75 l 2
 368 75 373 75 377 75 c 0
 386 75 390 73 390 58 c 2
 390 30 l 2
 390 0 390 0 360 0 c 2
 74 0 l 2
 66 0 59 0 54 -0 c 0
 40 0 35 3 35 26 c 2
 35 56 l 2
 35 72 33 75 50 75 c 2
 110 75 l 2
 112 75 113 75 115 75 c 0
 144 75 145 76 145 108 c 2
 145 640 l 2
 145 680 136 673 100 675 c 2
 64 675 l 2
 57 674 52 674 48 674 c 0
 36 674 35 678 35 700 c 2
 35 730 l 2
 35 748 46 751 60 751 c 0
 67 751 74 750 82 750 c 0
 83 750 85 750 86 750 c 2
 450 750 l 2
 651 750 720 665 720 555 c 0
 720 478 684 412 594 384 c 4
 572 377 563 373 563 370 c 0
 563 365 582 360 602 346 c 4
 721 264 651 84 724 84 c 0
 738 84 754 94 770 108 c 0
 780 117 785 127 792 127 c 0
 795 127 799 125 804 120 c 2
 818 104 l 2
 827 94 831 87 831 81 c 0
 831 75 827 69 819 58 c 0
312 415 m 2
 450 415 l 2
 516 415 580 456 580 555 c 0
 580 654 516 675 450 675 c 2
 330 675 l 2
 290 673 280 680 280 636 c 2
 280 458 l 2
 280 450 280 443 280 438 c 0
 280 420 282 415 302 415 c 0
 305 415 308 415 312 415 c 2
EndSplineSet
Substitution2: "'ss01' Style Set 1 lookup 2-1" uniFFFD
EndChar

StartChar: S
Encoding: 83 83 30
Width: 670
Flags: HMW
LayerCount: 2
Fore
SplineSet
532 560 m 0
 506 644 423 689 345 689 c 0
 249 689 201 652 201 593 c 0
 201 393 645 520 645 210 c 0
 645 70 526 -15 355 -15 c 0
 278 -15 217 8 175 41 c 0
 165 48 160 52 156 52 c 0
 151 52 149 46 141 32 c 0
 130 12 130 -5 97 -5 c 2
 70 -5 l 2
 48 -5 44 0 44 13 c 0
 44 19 45 26 45 35 c 2
 45 221 l 2
 45 229 44 235 44 240 c 0
 44 251 47 255 67 255 c 2
 94 255 l 2
 131 255 118 237 127 209 c 0
 152 127 240 56 345 56 c 0
 471 56 515 116 515 185 c 0
 515 405 75 269 75 559 c 0
 75 699 194 760 325 760 c 0
 386 760 442 742 482 713 c 0
 493 705 498 699 503 699 c 0
 507 699 511 704 519 716 c 2
 529 732 l 2
 540 750 545 750 574 750 c 2
 594 750 l 6
 613 750 615 747 615 728 c 2
 615 550 l 2
 615 544 615 539 615 534 c 0
 615 517 613 505 591 505 c 2
 554 505 l 2
 532 505 537 543 532 560 c 0
EndSplineSet
EndChar

StartChar: T
Encoding: 84 84 31
Width: 725
Flags: HMW
LayerCount: 2
Fore
SplineSet
524 0 m 2
 194 0 l 2
 192 0 191 0 189 -0 c 0
 166 0 165 1 165 28 c 2
 165 52 l 2
 165 72 172 76 184 76 c 0
 191 76 200 75 210 75 c 2
 270 75 l 2
 292 75 296 83 296 97 c 0
 296 104 295 113 295 124 c 2
 295 643 l 2
 295 648 295 652 295 656 c 0
 295 675 293 680 268 680 c 2
 255 680 l 2
 132 680 93 650 86 538 c 0
 86 534 86 530 86 526 c 0
 86 523 86 521 86 518 c 0
 86 502 84 495 58 495 c 2
 30 495 l 2
 16 495 14 504 14 515 c 0
 14 523 15 531 15 540 c 2
 15 729 l 2
 15 748 31 750 49 750 c 0
 55 750 61 750 66 750 c 2
 652 750 l 2
 665 750 676 751 685 751 c 0
 701 751 710 747 710 720 c 2
 710 548 l 2
 710 537 711 527 711 518 c 0
 711 504 708 495 688 495 c 2
 661 495 l 6
 641 495 639 507 639 522 c 0
 639 525 639 529 639 532 c 0
 639 534 639 536 639 538 c 0
 632 650 593 680 470 680 c 0
 432 680 430 678 430 646 c 0
 430 643 430 640 430 636 c 2
 430 122 l 2
 430 120 430 119 430 117 c 0
 430 76 431 75 476 75 c 2
 530 75 l 2
 536 75 540 75 544 75 c 0
 557 75 560 73 560 52 c 2
 560 24 l 2
 560 3 556 0 543 -0 c 0
 538 0 532 0 524 0 c 2
EndSplineSet
EndChar

StartChar: U
Encoding: 85 85 32
Width: 830
Flags: HMW
LayerCount: 2
Fore
SplineSet
599 675 m 2
 533 675 l 2
 507 675 505 677 505 695 c 0
 505 699 505 703 505 708 c 2
 505 734 l 2
 505 748 509 751 518 751 c 0
 522 751 527 750 533 750 c 2
 777 750 l 2
 783 750 788 750 793 750 c 0
 809 750 820 748 820 728 c 6
 820 712 l 2
 820 704 821 696 821 691 c 0
 821 680 818 675 799 675 c 2
 745 675 l 2
 740 675 736 675 732 675 c 0
 713 675 710 673 710 646 c 2
 710 300 l 2
 710 95 598 -15 420 -15 c 0
 177 -15 120 117 120 300 c 2
 120 648 l 2
 120 653 120 657 120 661 c 0
 120 671 118 675 101 675 c 2
 43 675 l 2
 36 675 30 674 25 674 c 0
 15 674 10 677 10 694 c 2
 10 726 l 2
 10 730 10 734 10 737 c 0
 10 748 12 750 29 750 c 2
 341 750 l 2
 348 750 355 751 361 751 c 0
 369 751 375 749 375 736 c 2
 375 708 l 2
 375 706 375 705 375 703 c 0
 375 676 374 675 343 675 c 2
 283 675 l 2
 281 675 280 675 278 675 c 0
 256 675 255 674 255 648 c 2
 255 310 l 2
 255 158 291 75 435 75 c 0
 549 75 630 128 630 300 c 2
 630 642 l 2
 630 644 630 645 630 647 c 0
 630 674 629 675 599 675 c 2
EndSplineSet
EndChar

StartChar: V
Encoding: 86 86 33
Width: 850
Flags: HMW
LayerCount: 2
Fore
SplineSet
487 228 m 2
 653 625 l 2
 660 642 670 654 670 663 c 0
 670 671 662 675 636 675 c 0
 623 675 611 673 601 673 c 0
 586 673 575 678 575 700 c 2
 575 722 l 2
 575 724 575 725 575 727 c 0
 575 749 576 750 601 750 c 2
 820 750 l 2
 825 750 829 750 833 750 c 0
 853 750 855 748 855 720 c 2
 855 698 l 2
 855 677 852 675 838 675 c 0
 835 675 831 675 826 675 c 2
 794 675 l 2
 756 675 758 664 747 639 c 2
 484 30 l 2
 474 8 476 -15 442 -15 c 2
 418 -15 l 2
 375 -15 378 0 366 28 c 2
 97 652 l 2
 90 669 91 675 66 675 c 2
 26 675 l 2
 -2 675 -5 678 -5 698 c 0
 -5 702 -5 708 -5 714 c 0
 -5 722 -6 728 -6 733 c 0
 -6 745 -3 750 18 750 c 2
 304 750 l 2
 313 750 321 751 327 751 c 0
 338 751 345 748 345 730 c 2
 345 688 l 2
 345 676 339 674 330 674 c 0
 325 674 319 675 312 675 c 2
 270 675 l 2
 247 675 240 672 240 666 c 0
 240 660 246 651 251 638 c 2
 417 232 l 2
 424 215 431 195 436 177 c 0
 443 154 447 141 451 141 c 0
 455 141 460 153 468 180 c 0
 473 197 480 212 487 228 c 2
EndSplineSet
EndChar

StartChar: W
Encoding: 87 87 34
Width: 1220
Flags: HMW
LayerCount: 2
Fore
SplineSet
460 254 m 2
 591 584 l 2
 596 597 598 606 598 615 c 0
 598 626 595 636 590 652 c 0
 585 667 588 675 566 675 c 2
 516 675 l 2
 492 675 490 677 490 694 c 0
 490 697 490 701 490 706 c 2
 490 736 l 2
 490 749 496 751 505 751 c 0
 511 751 518 750 526 750 c 2
 758 750 l 2
 765 750 771 751 776 751 c 0
 785 751 790 748 790 732 c 2
 790 704 l 2
 790 677 786 675 768 675 c 0
 764 675 758 675 752 675 c 2
 736 675 l 2
 727 675 724 672 724 668 c 0
 724 662 729 654 731 646 c 2
 841 277 l 2
 845 264 849 249 852 235 c 0
 860 204 864 190 868 190 c 0
 873 190 877 207 884 236 c 0
 888 253 894 273 900 289 c 2
 1023 642 l 2
 1027 652 1032 661 1032 667 c 0
 1032 672 1027 675 1012 675 c 2
 962 675 l 2
 942 675 939 680 939 692 c 0
 939 698 940 705 940 714 c 2
 940 738 l 2
 940 749 946 751 954 751 c 0
 959 751 966 750 972 750 c 2
 1188 750 l 2
 1217 750 1220 746 1220 726 c 0
 1220 721 1220 716 1220 710 c 0
 1220 702 1221 696 1221 691 c 0
 1221 679 1218 675 1198 675 c 2
 1144 675 l 2
 1111 675 1111 672 1103 648 c 2
 888 28 l 2
 880 6 884 -10 852 -10 c 2
 828 -10 l 2
 794 -10 795 -7 787 18 c 2
 662 421 l 2
 656 442 649 462 645 485 c 0
 641 507 639 518 637 518 c 0
 635 518 632 507 627 483 c 0
 622 460 613 441 605 420 c 2
 450 28 l 2
 441 6 444 -10 412 -10 c 2
 386 -10 l 2
 348 -10 351 1 342 28 c 2
 126 646 l 2
 116 675 112 675 72 675 c 2
 26 675 l 2
 2 675 0 677 -0 695 c 0
 0 698 0 701 0 704 c 2
 0 732 l 2
 0 748 7 751 17 751 c 0
 23 751 31 750 40 750 c 2
 320 750 l 2
 326 750 332 750 336 750 c 0
 346 750 350 748 350 732 c 2
 350 698 l 2
 350 677 341 673 327 673 c 0
 318 673 308 675 296 675 c 0
 268 675 260 672 260 664 c 0
 260 658 265 648 270 634 c 2
 396 262 l 2
 401 247 407 232 411 215 c 0
 419 184 423 169 427 169 c 0
 432 169 437 185 446 216 c 0
 450 229 455 242 460 254 c 2
EndSplineSet
EndChar

StartChar: X
Encoding: 88 88 35
Width: 880
Flags: HMW
LayerCount: 2
Fore
SplineSet
73 750 m 2
 351 750 l 2
 360 750 370 752 379 752 c 0
 391 752 400 749 400 734 c 2
 400 702 l 2
 400 699 400 696 400 693 c 0
 400 677 399 675 377 675 c 2
 339 675 l 2
 317 675 309 674 309 670 c 0
 309 666 317 659 325 648 c 2
 417 531 l 2
 428 516 440 501 450 485 c 0
 457 474 462 469 466 469 c 0
 471 469 475 474 481 484 c 0
 493 503 510 525 524 543 c 2
 607 648 l 2
 616 659 621 666 621 670 c 0
 621 675 613 675 595 675 c 0
 590 675 585 675 579 675 c 2
 553 675 l 2
 532 675 530 679 530 691 c 0
 530 695 530 701 530 708 c 2
 530 732 l 2
 530 748 536 751 546 751 c 0
 552 751 559 750 567 750 c 2
 803 750 l 2
 810 750 816 750 821 750 c 0
 836 750 840 747 840 724 c 2
 840 698 l 2
 840 678 833 674 821 674 c 0
 814 674 805 675 795 675 c 2
 745 675 l 2
 712 675 710 664 696 646 c 2
 569 484 l 2
 557 469 544 453 531 439 c 0
 518 426 512 417 512 409 c 0
 512 401 517 394 527 384 c 0
 540 370 558 350 571 333 c 2
 751 102 l 2
 768 81 771 75 811 75 c 2
 851 75 l 2
 853 75 854 75 856 75 c 0
 874 75 875 74 875 52 c 2
 875 32 l 2
 875 3 871 0 851 -0 c 0
 846 0 841 0 835 0 c 2
 541 0 l 2
 536 0 533 0 530 -0 c 0
 518 0 515 2 515 20 c 2
 515 44 l 2
 515 49 515 53 515 56 c 0
 515 73 517 75 541 75 c 2
 577 75 l 2
 593 75 598 78 598 82 c 0
 598 89 582 101 574 112 c 2
 462 257 l 2
 449 273 437 291 425 308 c 0
 421 315 417 317 414 317 c 0
 409 317 405 310 399 300 c 0
 388 280 373 262 359 244 c 2
 261 122 l 2
 250 108 230 93 230 84 c 0
 230 78 237 75 259 75 c 6
 283 75 l 2
 290 75 296 76 301 76 c 0
 310 76 315 73 315 60 c 2
 315 22 l 2
 315 2 310 -1 299 -1 c 0
 294 -1 286 0 278 0 c 2
 36 0 l 2
 33 0 30 0 27 -0 c 0
 7 0 5 2 5 28 c 2
 5 50 l 2
 5 53 5 57 5 59 c 0
 5 73 6 75 26 75 c 2
 90 75 l 2
 136 75 139 84 158 108 c 2
 290 272 l 2
 315 303 342 334 368 362 c 0
 372 367 374 370 374 374 c 0
 374 379 370 383 362 391 c 0
 348 404 334 421 322 437 c 2
 157 650 l 2
 146 665 145 675 117 675 c 2
 77 675 l 2
 40 675 40 675 40 712 c 2
 40 738 l 2
 40 749 46 751 54 751 c 0
 60 751 67 750 73 750 c 2
EndSplineSet
EndChar

StartChar: Y
Encoding: 89 89 36
Width: 815
Flags: HMW
LayerCount: 2
Fore
SplineSet
23 750 m 2
 323 750 l 2
 328 750 332 750 335 750 c 0
 352 750 355 748 355 724 c 2
 355 704 l 2
 355 699 355 695 355 692 c 0
 355 677 353 675 331 675 c 2
 303 675 l 2
 278 675 269 674 269 669 c 0
 269 665 274 658 282 646 c 2
 388 483 l 2
 401 463 413 443 424 420 c 0
 432 403 436 395 440 395 c 0
 445 395 450 405 461 422 c 0
 475 444 489 465 504 486 c 2
 605 632 l 2
 614 645 630 658 630 666 c 0
 630 671 623 675 603 675 c 2
 545 675 l 2
 520 675 520 675 520 700 c 2
 520 720 l 2
 520 725 520 729 520 732 c 0
 520 748 522 750 545 750 c 2
 795 750 l 2
 800 750 805 750 808 750 c 0
 817 750 820 748 820 734 c 2
 820 696 l 2
 820 676 821 675 801 675 c 2
 755 675 l 2
 721 675 721 669 708 650 c 2
 508 364 l 2
 491 340 485 328 485 284 c 2
 485 118 l 2
 485 110 485 104 485 99 c 0
 485 79 488 75 519 75 c 2
 573 75 l 2
 578 75 582 75 585 75 c 0
 602 75 605 73 605 48 c 2
 605 26 l 2
 605 3 599 0 585 -0 c 0
 580 0 573 0 565 0 c 2
 271 0 l 2
 264 0 258 -1 253 -1 c 0
 244 -1 240 2 240 16 c 2
 240 46 l 2
 240 51 240 55 240 58 c 0
 240 72 242 75 263 75 c 2
 323 75 l 2
 347 75 350 80 350 95 c 0
 350 100 350 108 350 116 c 2
 350 250 l 2
 350 303 343 319 324 348 c 2
 130 638 l 2
 110 667 108 675 57 675 c 0
 44 675 32 673 22 673 c 0
 6 673 -5 678 -5 702 c 2
 -5 730 l 2
 -5 748 -2 750 9 750 c 0
 13 750 17 750 23 750 c 2
EndSplineSet
EndChar

StartChar: Z
Encoding: 90 90 37
Width: 725
Flags: HMW
LayerCount: 2
Fore
SplineSet
70 558 m 2
 70 732 l 2
 70 748 79 751 91 751 c 0
 99 751 109 750 119 750 c 2
 625 750 l 2
 634 750 643 752 651 752 c 0
 662 752 670 749 670 734 c 2
 670 704 l 2
 670 662 652 653 634 630 c 2
 242 140 l 2
 222 114 202 98 202 88 c 0
 202 79 220 75 271 75 c 6
 450 75 l 2
 564 75 619 112 619 228 c 0
 619 232 619 236 619 240 c 0
 619 249 621 255 633 255 c 2
 659 255 l 2
 666 255 672 256 677 256 c 0
 686 256 690 253 690 238 c 2
 690 36 l 2
 690 3 686 0 664 -0 c 0
 659 0 653 0 645 0 c 2
 65 0 l 2
 57 0 50 -1 45 -1 c 0
 35 -1 30 2 30 18 c 2
 30 44 l 2
 30 80 38 85 53 104 c 2
 480 638 l 2
 492 653 503 662 503 668 c 0
 503 673 492 675 463 675 c 2
 310 675 l 2
 201 675 154 643 143 560 c 0
 139 533 149 515 115 515 c 2
 91 515 l 2
 72 515 69 522 69 534 c 0
 69 541 70 548 70 558 c 2
EndSplineSet
EndChar

StartChar: a
Encoding: 97 97 38
Width: 606
VWidth: 1155
Flags: HMW
LayerCount: 2
Fore
SplineSet
199 379 m 0
 199 335 168 310 124 310 c 0
 78 310 45 339 45 383 c 0
 45 470 147 535 278 535 c 0
 398 535 486 473 486 352 c 2
 486 106 l 2
 486 86 498 62 522 62 c 0
 534 62 543 67 550 77 c 0
 559 89 560 98 567 98 c 0
 570 98 575 96 582 92 c 0
 596 84 602 79 602 72 c 0
 602 67 598 60 592 49 c 0
 567 7 528 -15 476 -15 c 0
 430 -15 396 1 376 26 c 0
 360 47 357 56 353 56 c 0
 349 56 344 44 322 26 c 0
 289 -1 246 -15 200 -15 c 0
 91 -15 25 34 25 128 c 0
 25 222 112 294 304 294 c 0
 345 294 346 295 346 333 c 0
 346 335 346 336 346 338 c 6
 346 362 l 2
 346 429 333 474 253 474 c 0
 199 474 168 457 168 442 c 0
 168 429 199 427 199 379 c 0
304 246 m 4
 188 246 162 180 162 143 c 0
 162 86 205 61 245 61 c 0
 303 61 346 95 346 186 c 2
 346 216 l 2
 346 243 342 246 325 246 c 0
 319 246 312 246 304 246 c 4
EndSplineSet
EndChar

StartChar: b
Encoding: 98 98 39
Width: 658
VWidth: 1155
Flags: HMW
LayerCount: 2
Fore
SplineSet
72 715 m 2
 36 715 l 2
 12 715 10 717 10 735 c 0
 10 738 10 741 10 744 c 2
 10 760 l 2
 10 778 16 781 27 781 c 0
 33 781 39 780 48 780 c 6
 200 780 l 2
 205 780 209 780 212 780 c 0
 227 780 230 778 230 756 c 2
 230 468 l 2
 230 442 232 433 235 433 c 0
 241 433 250 464 264 479 c 0
 295 514 338 534 396 534 c 0
 505 534 618 440 618 260 c 0
 618 80 495 -15 386 -15 c 0
 325 -15 280 13 250 57 c 0
 242 69 236 87 233 87 c 0
 231 87 230 80 230 60 c 2
 230 30 l 2
 230 2 227 0 205 -0 c 0
 202 0 199 0 196 0 c 2
 40 0 l 2
 37 0 34 0 31 -0 c 0
 12 0 10 2 10 26 c 2
 10 48 l 2
 10 63 14 65 23 65 c 0
 27 65 32 65 38 65 c 2
 76 65 l 2
 100 65 100 66 100 90 c 2
 100 690 l 2
 100 714 99 715 81 715 c 0
 78 715 75 715 72 715 c 2
230 260 m 0
 230 146 287 62 358 62 c 0
 422 62 478 146 478 260 c 0
 478 374 422 458 358 458 c 0
 287 458 230 374 230 260 c 0
EndSplineSet
EndChar

StartChar: c
Encoding: 99 99 40
Width: 563
VWidth: 1155
Flags: HMW
LayerCount: 2
Fore
SplineSet
520 373 m 0
 520 315 475 280 436 280 c 0
 389 280 359 306 359 353 c 0
 359 399 402 406 402 428 c 0
 402 446 367 469 319 469 c 0
 224 469 185 384 185 270 c 0
 185 146 216 49 315 49 c 0
 380 49 422 84 448 148 c 0
 456 167 453 173 482 173 c 2
 512 173 l 2
 523 173 526 168 526 162 c 0
 526 152 518 138 514 128 c 4
 481 44 415 -15 303 -15 c 0
 132 -15 40 110 40 250 c 0
 40 400 138 535 299 535 c 0
 451 535 520 450 520 373 c 0
EndSplineSet
EndChar

StartChar: d
Encoding: 100 100 41
Width: 658
VWidth: 1155
Flags: HMW
LayerCount: 2
Fore
SplineSet
648 46 m 2
 648 30 l 2
 648 2 645 0 625 -0 c 0
 621 0 617 0 612 0 c 2
 460 0 l 2
 453 0 447 -1 442 -1 c 0
 433 -1 428 2 428 18 c 2
 428 42 l 2
 428 72 427 83 423 83 c 0
 417 83 405 49 388 32 c 0
 359 2 321 -15 272 -15 c 0
 163 -15 40 80 40 260 c 0
 40 440 153 534 262 534 c 0
 316 534 358 516 388 485 c 0
 407 465 418 437 423 437 c 0
 427 437 428 450 428 488 c 2
 428 684 l 2
 428 690 428 695 428 699 c 0
 428 712 426 715 406 715 c 2
 364 715 l 2
 359 715 354 715 351 715 c 0
 341 715 338 717 338 734 c 2
 338 762 l 2
 338 778 342 780 351 780 c 0
 355 780 360 780 366 780 c 2
 520 780 l 2
 529 780 535 781 541 781 c 0
 552 781 558 778 558 760 c 2
 558 88 l 2
 558 67 561 65 576 65 c 0
 579 65 583 65 588 65 c 2
 618 65 l 2
 624 65 630 65 634 65 c 0
 644 65 648 63 648 46 c 2
428 260 m 0
 428 374 371 458 300 458 c 0
 236 458 180 374 180 260 c 0
 180 146 236 62 300 62 c 0
 371 62 428 146 428 260 c 0
EndSplineSet
EndChar

StartChar: e
Encoding: 101 101 42
Width: 569
VWidth: 1155
Flags: HMW
LayerCount: 2
Fore
SplineSet
483 256 m 2
 219 256 l 2
 212 256 206 256 201 256 c 0
 187 256 182 254 182 237 c 0
 182 235 182 232 182 229 c 0
 187 128 215 54 310 54 c 0
 372 54 410 83 435 141 c 0
 440 153 440 173 459 173 c 2
 495 173 l 2
 509 173 513 167 513 159 c 0
 513 149 507 136 503 125 c 0
 471 43 409 -15 298 -15 c 0
 127 -15 40 110 40 250 c 0
 40 410 114 535 295 535 c 0
 477 535 517 409 523 289 c 0
 523 285 523 281 523 278 c 0
 523 258 518 256 499 256 c 0
 494 256 489 256 483 256 c 2
380 375 m 4
 372 432 351 476 294 476 c 0
 230 476 200 423 188 355 c 0
 186 346 185 339 185 334 c 0
 185 320 193 319 216 319 c 0
 219 319 223 319 227 319 c 2
 353 319 l 2
 378 319 385 326 385 340 c 0
 385 349 382 361 380 375 c 4
EndSplineSet
EndChar

StartChar: f
Encoding: 102 102 43
Width: 430
VWidth: 1155
Flags: HMW
LayerCount: 2
Fore
SplineSet
245 424 m 2
 245 90 l 2
 245 68 251 64 264 64 c 0
 270 64 277 65 286 65 c 2
 334 65 l 2
 341 65 346 65 350 65 c 0
 361 65 365 63 365 44 c 2
 365 16 l 2
 365 2 362 0 353 -0 c 0
 350 0 345 0 340 0 c 2
 54 0 l 2
 48 0 42 -1 37 -1 c 0
 30 -1 25 1 25 12 c 2
 25 40 l 2
 25 65 25 65 50 65 c 2
 94 65 l 2
 113 65 115 68 115 80 c 0
 115 84 115 88 115 94 c 2
 115 420 l 2
 115 428 116 434 116 439 c 0
 116 451 113 455 92 455 c 2
 44 455 l 2
 27 455 25 458 25 469 c 0
 25 472 25 476 25 480 c 2
 25 498 l 2
 25 519 26 520 41 520 c 0
 43 520 47 520 50 520 c 2
 92 520 l 2
 115 520 115 521 115 544 c 6
 115 572 l 2
 115 703 192 795 342 795 c 0
 473 795 540 741 540 674 c 0
 540 621 503 588 458 588 c 0
 413 588 383 618 383 656 c 0
 383 696 411 703 411 718 c 0
 411 730 386 740 344 740 c 0
 274 740 245 677 245 550 c 0
 245 545 245 541 245 538 c 0
 245 522 247 520 270 520 c 2
 354 520 l 2
 361 520 367 521 372 521 c 0
 381 521 385 518 385 504 c 2
 385 476 l 2
 385 457 382 455 370 455 c 0
 366 455 362 455 356 455 c 2
 278 455 l 2
 276 455 275 455 273 455 c 0
 246 455 245 454 245 424 c 2
EndSplineSet
EndChar

StartChar: g
Encoding: 103 103 44
Width: 617
VWidth: 1155
Flags: HMW
LayerCount: 2
Fore
SplineSet
180 345 m 0
 180 271 195 205 264 205 c 0
 333 205 348 271 348 345 c 0
 348 419 333 485 264 485 c 0
 195 485 180 419 180 345 c 0
45 345 m 0
 45 455 133 535 264 535 c 0
 313 535 357 523 392 503 c 0
 405 495 410 491 415 491 c 0
 420 491 425 496 438 506 c 0
 462 525 490 535 518 535 c 0
 589 535 622 491 622 439 c 0
 622 400 589 374 559 374 c 0
 526 374 501 398 501 428 c 0
 501 462 525 463 525 477 c 0
 525 484 520 487 509 487 c 0
 498 487 485 484 472 475 c 0
 459 467 454 462 454 454 c 0
 454 448 457 442 462 432 c 0
 476 406 483 377 483 345 c 0
 483 235 395 155 264 155 c 0
 251 155 238 156 226 157 c 0
 219 158 214 158 209 158 c 0
 201 158 195 157 186 154 c 0
 163 145 145 132 145 116 c 0
 145 89 182 89 237 89 c 0
 262 89 320 90 348 90 c 0
 463 90 555 54 555 -82 c 0
 555 -193 455 -265 275 -265 c 0
 112 -265 20 -220 20 -135 c 0
 20 -89 54 -50 89 -26 c 4
 107 -14 115 -8 115 -3 c 0
 115 3 105 8 88 20 c 4
 69 33 52 54 52 84 c 0
 52 119 75 147 111 166 c 0
 130 176 138 179 138 183 c 0
 138 187 127 191 109 206 c 0
 68 240 45 288 45 345 c 0
444 -107 m 0
 444 -33 400 -9 345 -9 c 2
 251 -9 l 2
 239 -9 227 -9 214 -9 c 0
 213 -9 211 -9 210 -9 c 0
 178 -9 174 -20 165 -44 c 0
 157 -66 155 -87 155 -102 c 0
 155 -170 195 -203 291 -203 c 0
 375 -203 444 -169 444 -107 c 0
EndSplineSet
EndChar

StartChar: h
Encoding: 104 104 45
Width: 690
VWidth: 1155
Flags: HMW
LayerCount: 2
Fore
SplineSet
85 715 m 2
 37 715 l 2
 10 715 10 715 10 742 c 2
 10 762 l 2
 10 778 21 782 35 782 c 0
 46 782 58 780 69 780 c 2
 213 780 l 6
 228 780 232 770 232 758 c 0
 232 749 230 739 230 730 c 2
 230 478 l 2
 230 444 231 432 235 432 c 0
 241 432 253 462 271 481 c 0
 302 513 345 535 403 535 c 0
 520 535 575 476 575 369 c 2
 575 106 l 2
 575 98 575 91 575 86 c 0
 575 70 578 65 605 65 c 2
 641 65 l 2
 647 65 651 66 655 66 c 0
 662 66 665 64 665 52 c 2
 665 26 l 2
 665 1 664 0 642 -0 c 0
 640 0 639 0 637 0 c 2
 411 0 l 2
 403 0 396 -1 390 -1 c 0
 381 -1 375 2 375 16 c 2
 375 44 l 2
 375 47 375 50 375 52 c 0
 375 63 376 65 393 65 c 2
 417 65 l 2
 442 65 446 72 446 87 c 0
 446 94 445 103 445 114 c 2
 445 358 l 2
 445 432 431 463 380 463 c 0
 328 463 285 437 259 394 c 0
 240 364 230 326 230 283 c 2
 230 108 l 2
 230 99 229 91 229 84 c 0
 229 72 232 65 249 65 c 2
 273 65 l 2
 279 65 284 66 288 66 c 0
 295 66 300 64 300 52 c 2
 300 36 l 2
 300 29 301 22 301 15 c 0
 301 7 299 0 289 0 c 2
 49 0 l 2
 41 0 34 0 29 -0 c 0
 15 0 10 3 10 26 c 2
 10 46 l 2
 10 63 13 65 24 65 c 0
 27 65 31 65 35 65 c 2
 77 65 l 2
 99 65 100 66 100 85 c 0
 100 87 100 88 100 90 c 2
 100 686 l 2
 100 693 101 699 101 703 c 0
 101 711 98 715 85 715 c 2
EndSplineSet
EndChar

StartChar: i
Encoding: 105 105 46
Width: 340
VWidth: 1155
Flags: HMW
LayerCount: 2
Fore
SplineSet
85 700 m 0
 85 744 118 780 170 780 c 0
 222 780 255 744 255 700 c 0
 255 656 222 620 170 620 c 0
 118 620 85 656 85 700 c 0
88 455 m 6
 46 455 l 2
 21 455 20 456 20 478 c 0
 20 480 20 481 20 483 c 2
 20 498 l 2
 20 518 27 521 40 521 c 0
 47 521 57 520 67 520 c 2
 199 520 l 2
 238 520 240 518 240 488 c 0
 240 484 240 479 240 474 c 2
 240 96 l 2
 240 89 240 83 240 79 c 0
 240 69 242 65 259 65 c 2
 298 65 l 2
 328 65 330 62 330 40 c 0
 330 36 330 32 330 27 c 0
 330 2 327 0 310 -0 c 0
 307 0 303 0 298 0 c 2
 55 0 l 2
 47 0 40 -1 35 -1 c 0
 25 -1 20 2 20 18 c 2
 20 48 l 2
 20 63 22 65 32 65 c 0
 35 65 39 65 43 65 c 2
 79 65 l 2
 107 65 111 72 111 89 c 0
 111 97 110 108 110 120 c 2
 110 414 l 2
 110 423 111 431 111 437 c 0
 111 449 108 455 88 455 c 6
EndSplineSet
EndChar

StartChar: j
Encoding: 106 106 47
Width: 300
VWidth: 1155
Flags: HMW
LayerCount: 2
Fore
SplineSet
75 700 m 0
 75 744 108 780 160 780 c 0
 212 780 245 744 245 700 c 0
 245 656 212 620 160 620 c 0
 108 620 75 656 75 700 c 0
69 455 m 6
 33 455 l 2
 11 455 10 456 10 472 c 0
 10 475 10 478 10 481 c 2
 10 507 l 2
 10 519 18 521 28 521 c 0
 36 521 45 520 53 520 c 2
 197 520 l 2
 230 520 230 520 230 487 c 2
 230 11 l 2
 230 -120 183 -262 33 -262 c 0
 -88 -262 -125 -198 -125 -131 c 0
 -125 -78 -88 -45 -43 -45 c 0
 2 -45 32 -75 32 -113 c 0
 32 -163 0 -165 0 -180 c 0
 0 -192 12 -207 36 -207 c 0
 93 -207 103 -133 103 -47 c 0
 103 3 100 57 100 104 c 2
 100 443 l 2
 100 454 95 456 87 456 c 0
 82 456 75 455 69 455 c 6
EndSplineSet
EndChar

StartChar: k
Encoding: 107 107 48
Width: 646
VWidth: 1155
Flags: HMW
LayerCount: 2
Fore
SplineSet
69 715 m 2
 36 715 l 2
 30 715 26 715 22 715 c 0
 13 715 10 717 10 732 c 2
 10 759 l 2
 10 778 13 780 25 780 c 0
 29 780 33 780 39 780 c 2
 201 780 l 2
 227 780 230 775 230 759 c 0
 230 753 230 746 230 738 c 2
 230 375 l 2
 230 328 231 309 240 309 c 0
 248 309 263 324 291 346 c 6
 386 422 l 2
 394 429 411 436 411 441 c 0
 411 443 406 445 394 445 c 2
 352 445 l 2
 331 445 329 448 329 462 c 0
 329 466 329 471 329 477 c 2
 329 499 l 2
 329 518 336 521 348 521 c 0
 355 521 364 520 374 520 c 2
 574 520 l 2
 582 520 589 521 595 521 c 0
 605 521 612 518 612 503 c 2
 612 465 l 2
 612 447 609 445 597 445 c 0
 594 445 591 445 586 445 c 2
 554 445 l 2
 514 445 508 436 488 419 c 2
 402 348 l 2
 384 332 366 324 366 311 c 0
 366 306 369 299 376 291 c 2
 542 91 l 2
 554 77 556 65 584 65 c 2
 623 65 l 2
 627 65 631 65 634 65 c 0
 644 65 646 63 646 48 c 2
 646 27 l 2
 646 2 643 0 627 -0 c 0
 623 0 618 0 612 0 c 2
 381 0 l 2
 361 0 358 5 358 17 c 0
 358 22 359 28 359 36 c 0
 359 39 359 42 359 45 c 0
 359 63 360 65 384 65 c 0
 401 65 407 67 407 71 c 0
 407 76 396 83 388 93 c 2
 264 240 l 2
 251 256 242 268 237 268 c 0
 231 268 230 253 230 213 c 2
 230 99 l 2
 230 96 230 93 230 90 c 0
 230 67 232 65 261 65 c 2
 282 65 l 2
 288 65 293 65 297 65 c 0
 306 65 310 63 310 48 c 2
 310 30 l 2
 310 2 307 0 285 -0 c 0
 282 0 279 0 276 0 c 2
 45 0 l 2
 12 0 10 2 10 29 c 0
 10 32 10 35 10 39 c 0
 10 63 13 65 30 65 c 0
 33 65 37 65 42 65 c 2
 78 65 l 2
 98 65 101 74 101 87 c 0
 101 95 100 106 100 117 c 2
 100 687 l 2
 100 713 98 715 78 715 c 0
 75 715 72 715 69 715 c 2
EndSplineSet
EndChar

StartChar: l
Encoding: 108 108 49
Width: 330
VWidth: 1155
Flags: HMW
LayerCount: 2
Fore
SplineSet
75 715 m 6
 33 715 l 2
 30 715 27 715 25 715 c 0
 12 715 10 716 10 734 c 2
 10 764 l 2
 10 778 17 781 27 781 c 0
 33 781 40 780 48 780 c 2
 192 780 l 2
 226 780 231 777 231 756 c 0
 231 747 230 735 230 719 c 6
 230 116 l 2
 230 104 229 95 229 88 c 0
 229 71 234 65 262 65 c 2
 296 65 l 2
 298 65 299 65 301 65 c 0
 319 65 320 64 320 42 c 2
 320 18 l 2
 320 2 315 -1 305 -1 c 0
 299 -1 292 0 284 0 c 2
 48 0 l 2
 44 0 41 0 38 -0 c 0
 12 0 10 2 10 34 c 0
 10 41 9 47 9 52 c 0
 9 61 12 65 27 65 c 2
 66 65 l 2
 96 65 101 72 101 90 c 0
 101 97 100 105 100 116 c 2
 100 686 l 2
 100 689 100 692 100 695 c 0
 100 713 99 715 75 715 c 6
EndSplineSet
EndChar

StartChar: m
Encoding: 109 109 50
Width: 953
VWidth: 1155
Flags: HMW
LayerCount: 2
Fore
SplineSet
80 465 m 2
 54 465 l 2
 48 465 42 465 38 465 c 0
 28 465 25 467 25 484 c 0
 25 489 25 493 25 497 c 0
 25 518 27 520 56 520 c 2
 206 520 l 2
 234 520 235 518 235 493 c 0
 235 491 235 490 235 488 c 0
 235 457 236 446 239 446 c 0
 243 446 251 468 266 485 c 0
 293 515 329 535 379 535 c 0
 443 535 485 517 510 484 c 0
 530 459 534 447 538 447 c 0
 542 447 546 461 570 486 c 0
 598 516 636 535 685 535 c 0
 802 535 847 476 847 369 c 2
 847 98 l 2
 847 88 846 80 846 74 c 0
 846 62 850 55 870 55 c 2
 900 55 l 2
 906 55 911 55 915 55 c 0
 924 55 928 53 928 38 c 2
 928 20 l 2
 928 2 925 0 913 -0 c 0
 910 0 907 0 902 0 c 2
 678 0 l 2
 670 0 664 -1 659 -1 c 0
 648 -1 644 2 644 20 c 2
 644 30 l 6
 644 35 644 39 644 43 c 0
 644 50 645 55 656 55 c 2
 684 55 l 2
 715 55 717 58 717 81 c 0
 717 85 717 89 717 94 c 2
 717 358 l 2
 717 432 708 473 662 473 c 0
 594 473 541 386 541 283 c 2
 541 100 l 2
 541 90 540 82 540 75 c 0
 540 61 544 55 566 55 c 2
 584 55 l 2
 597 55 602 54 602 40 c 2
 602 26 l 2
 602 1 601 0 579 -0 c 0
 577 0 576 0 574 0 c 2
 382 0 l 2
 377 0 373 0 370 -0 c 0
 353 0 351 2 351 26 c 0
 351 31 351 35 351 38 c 0
 351 52 353 55 374 55 c 2
 388 55 l 2
 408 55 412 62 412 74 c 0
 412 80 411 88 411 98 c 2
 411 358 l 2
 411 432 402 473 356 473 c 0
 278 473 235 386 235 283 c 2
 235 82 l 2
 235 80 235 79 235 77 c 0
 235 56 236 55 260 55 c 2
 280 55 l 2
 286 55 291 56 295 56 c 0
 303 56 308 53 308 40 c 2
 308 20 l 2
 308 2 301 -1 290 -1 c 0
 283 -1 274 0 264 0 c 2
 54 0 l 2
 48 0 42 -1 38 -1 c 0
 29 -1 25 2 25 16 c 2
 25 30 l 2
 25 35 25 40 25 43 c 0
 25 52 27 55 42 55 c 2
 84 55 l 2
 103 55 106 60 106 71 c 0
 106 76 105 84 105 92 c 2
 105 428 l 2
 105 436 105 443 105 448 c 0
 105 461 102 465 80 465 c 2
EndSplineSet
EndChar

StartChar: n
Encoding: 110 110 51
Width: 705
VWidth: 1155
Flags: HMW
LayerCount: 2
Fore
SplineSet
82 455 m 2
 42 455 l 2
 27 455 25 458 25 467 c 0
 25 470 25 475 25 480 c 2
 25 502 l 2
 25 518 28 520 39 520 c 0
 42 520 46 520 50 520 c 2
 210 520 l 2
 218 520 224 521 229 521 c 0
 240 521 245 518 245 500 c 2
 245 478 l 6
 245 447 246 436 250 436 c 0
 255 436 265 458 282 477 c 0
 313 512 358 535 418 535 c 0
 535 535 590 476 590 369 c 2
 590 98 l 2
 590 95 590 92 590 89 c 0
 590 67 592 65 620 65 c 2
 644 65 l 6
 650 65 654 65 659 65 c 0
 671 65 680 63 680 48 c 2
 680 22 l 2
 680 2 678 0 665 -0 c 0
 661 0 656 0 650 0 c 2
 414 0 l 2
 409 0 404 0 401 -0 c 0
 393 0 390 2 390 16 c 2
 390 44 l 2
 390 63 395 66 407 66 c 0
 412 66 418 65 426 65 c 2
 440 65 l 2
 458 65 462 73 462 86 c 0
 462 94 460 105 460 116 c 2
 460 358 l 2
 460 432 446 463 395 463 c 0
 307 463 245 386 245 283 c 2
 245 120 l 2
 245 108 244 99 244 91 c 0
 244 72 249 65 280 65 c 0
 315 65 315 65 315 30 c 0
 315 24 315 20 315 16 c 0
 315 3 313 0 292 0 c 2
 58 0 l 2
 25 0 25 1 25 34 c 0
 25 40 25 45 25 49 c 0
 25 62 27 65 48 65 c 2
 80 65 l 2
 112 65 118 82 118 106 c 0
 118 122 115 141 115 160 c 2
 115 438 l 2
 115 453 110 456 100 456 c 0
 95 456 89 455 82 455 c 2
EndSplineSet
EndChar

StartChar: o
Encoding: 111 111 52
Width: 598
VWidth: 1155
Flags: HMW
LayerCount: 2
Fore
SplineSet
40 245 m 0
 40 405 128 535 299 535 c 0
 470 535 558 410 558 270 c 0
 558 110 470 -15 299 -15 c 0
 128 -15 40 105 40 245 c 0
185 270 m 0
 185 146 210 45 299 45 c 0
 388 45 413 146 413 250 c 0
 413 374 388 475 299 475 c 0
 210 475 185 374 185 270 c 0
EndSplineSet
EndChar

StartChar: p
Encoding: 112 112 53
Width: 658
VWidth: 1155
Flags: HMW
LayerCount: 2
Fore
SplineSet
68 455 m 2
 26 455 l 2
 11 455 10 456 10 466 c 0
 10 468 10 471 10 474 c 2
 10 498 l 2
 10 518 13 520 27 520 c 0
 30 520 34 520 39 520 c 6
 208 520 l 2
 228 520 230 517 230 505 c 0
 230 501 230 495 230 488 c 2
 230 460 l 2
 230 445 232 439 235 439 c 0
 241 439 253 463 261 473 c 0
 292 511 335 534 396 534 c 0
 505 534 618 440 618 260 c 0
 618 80 495 -15 386 -15 c 0
 326 -15 282 11 252 54 c 0
 240 71 234 78 230 78 c 0
 227 78 226 74 226 66 c 0
 226 50 230 19 230 -14 c 2
 230 -138 l 2
 230 -146 230 -152 230 -158 c 0
 230 -181 233 -185 266 -185 c 2
 292 -185 l 2
 298 -185 303 -184 307 -184 c 0
 315 -184 320 -187 320 -200 c 2
 320 -218 l 2
 320 -250 320 -250 288 -250 c 2
 34 -250 l 2
 30 -250 26 -250 23 -250 c 0
 13 -250 10 -248 10 -232 c 2
 10 -204 l 2
 10 -187 14 -184 24 -184 c 0
 29 -184 35 -185 42 -185 c 2
 76 -185 l 2
 98 -185 102 -172 102 -154 c 0
 102 -142 100 -128 100 -114 c 2
 100 430 l 2
 100 453 98 455 81 455 c 0
 77 455 73 455 68 455 c 2
230 260 m 0
 230 146 287 62 358 62 c 0
 422 62 478 146 478 260 c 0
 478 374 422 458 358 458 c 0
 287 458 230 374 230 260 c 0
EndSplineSet
EndChar

StartChar: q
Encoding: 113 113 54
Width: 658
VWidth: 1155
Flags: HMW
LayerCount: 2
Fore
SplineSet
648 499 m 6
 648 471 l 2
 648 457 645 455 636 455 c 0
 633 455 629 455 625 455 c 2
 581 455 l 2
 561 455 557 449 557 437 c 0
 557 431 558 424 558 415 c 2
 558 -139 l 2
 558 -150 557 -158 557 -165 c 0
 557 -178 561 -185 583 -185 c 2
 613 -185 l 2
 621 -185 627 -184 633 -184 c 0
 642 -184 648 -187 648 -201 c 2
 648 -236 l 2
 648 -248 643 -251 635 -251 c 0
 630 -251 624 -250 617 -250 c 2
 361 -250 l 2
 357 -250 353 -250 350 -250 c 0
 341 -250 338 -248 338 -234 c 2
 338 -208 l 2
 338 -187 341 -185 354 -185 c 0
 358 -185 363 -185 369 -185 c 2
 397 -185 l 2
 425 -185 429 -180 429 -163 c 0
 429 -157 428 -149 428 -140 c 2
 428 46 l 2
 428 74 427 84 424 84 c 0
 420 84 412 60 399 44 c 0
 369 7 327 -15 272 -15 c 0
 163 -15 40 80 40 260 c 0
 40 440 153 534 262 534 c 0
 327 534 374 508 405 465 c 0
 414 452 421 432 425 432 c 0
 427 432 428 439 428 461 c 2
 428 495 l 2
 428 518 431 520 446 520 c 0
 450 520 455 520 461 520 c 2
 617 520 l 2
 624 520 629 520 633 520 c 0
 644 520 648 518 648 499 c 6
428 260 m 0
 428 374 371 458 300 458 c 0
 236 458 180 374 180 260 c 0
 180 146 236 62 300 62 c 0
 371 62 428 146 428 260 c 0
EndSplineSet
EndChar

StartChar: r
Encoding: 114 114 55
Width: 509
VWidth: 1155
Flags: HMW
LayerCount: 2
Fore
SplineSet
297 0 m 2
 57 0 l 2
 49 0 42 -1 36 -1 c 0
 26 -1 21 2 21 18 c 2
 21 32 l 2
 21 40 20 45 20 50 c 0
 20 60 23 65 41 65 c 2
 81 65 l 2
 111 65 111 66 111 96 c 2
 111 424 l 2
 111 430 111 435 111 439 c 0
 111 452 109 455 89 455 c 2
 45 455 l 2
 42 455 38 455 36 455 c 0
 22 455 21 456 21 476 c 2
 21 502 l 2
 21 518 25 521 34 521 c 0
 39 521 45 520 52 520 c 2
 201 520 l 2
 210 520 217 521 223 521 c 0
 236 521 241 517 241 496 c 2
 241 468 l 2
 241 454 242 449 245 449 c 0
 250 449 258 464 267 477 c 4
 289 509 330 535 386 535 c 0
 460 535 509 494 509 426 c 0
 509 374 472 340 427 340 c 0
 383 340 346 370 346 411 c 0
 346 458 366 454 366 466 c 0
 366 471 362 476 351 476 c 0
 315 476 270 424 251 354 c 0
 242 321 241 284 241 244 c 0
 241 237 241 230 241 222 c 2
 241 96 l 2
 241 67 243 65 264 65 c 0
 268 65 272 65 277 65 c 2
 309 65 l 2
 331 65 331 64 331 42 c 2
 331 12 l 2
 331 1 325 -1 316 -1 c 0
 310 -1 303 0 297 0 c 2
EndSplineSet
EndChar

StartChar: s
Encoding: 115 115 56
Width: 500
VWidth: 1155
Flags: HMW
LayerCount: 2
Fore
SplineSet
372 405 m 0
 342 450 287 471 248 471 c 0
 185 471 160 443 160 406 c 0
 160 296 475 355 475 147 c 0
 475 23 385 -17 268 -17 c 0
 214 -17 169 -2 136 18 c 0
 124 25 119 32 115 32 c 0
 112 32 108 28 101 17 c 8
 89 -7 91 -10 66 -10 c 24
 57 -10 53 -10 44 -10 c 16
 27 -10 25 -6 25 4 c 0
 25 8 25 14 25 21 c 8
 25 71 25 99 25 149 c 24
 25 172 24 173 48 173 c 24
 59 173 65 173 76 173 c 24
 95 173 92 164 97 151 c 4
 124 83 192 50 248 50 c 0
 318 50 352 87 352 128 c 0
 352 245 42 179 42 385 c 0
 42 489 132 537 227 537 c 0
 280 537 317 524 342 507 c 0
 359 495 364 486 368 486 c 0
 372 486 375 494 387 513 c 8
 397 530 396 530 420 530 c 24
 430 530 436 530 446 530 c 0
 456 530 457 524 457 507 c 24
 457 465 457 441 457 399 c 16
 457 391 457 384 457 378 c 0
 457 358 455 350 434 350 c 0
 425 350 410 350 410 350 c 2
 382 350 383 388 372 405 c 0
EndSplineSet
EndChar

StartChar: t
Encoding: 116 116 57
Width: 398
VWidth: 1155
Flags: HMW
LayerCount: 2
Fore
SplineSet
354 66 m 4
 329 20 287 -17 218 -17 c 0
 121 -17 98 37 98 96 c 2
 98 427 l 2
 98 433 99 438 99 442 c 0
 99 451 96 455 82 455 c 2
 24 455 l 2
 22 455 20 455 19 455 c 0
 6 455 5 456 5 473 c 2
 5 497 l 2
 5 518 8 520 21 520 c 0
 23 520 26 520 29 520 c 0
 31 520 33 520 36 520 c 0
 101 523 153 541 162 662 c 0
 164 689 156 700 188 700 c 2
 208 700 l 2
 226 700 228 696 228 685 c 0
 228 681 228 677 228 671 c 2
 228 547 l 2
 228 522 231 520 248 520 c 0
 252 520 258 520 264 520 c 2
 330 520 l 2
 332 520 333 520 335 520 c 0
 354 520 355 519 355 496 c 2
 355 468 l 2
 355 456 352 455 345 455 c 0
 342 455 337 455 332 455 c 2
 246 455 l 2
 227 455 228 454 228 435 c 2
 228 104 l 2
 228 84 240 65 264 65 c 0
 277 65 294 78 308 94 c 0
 319 107 320 116 328 116 c 0
 331 116 335 115 342 111 c 2
 358 102 l 2
 363 99 365 95 365 91 c 0
 365 84 359 75 354 66 c 4
EndSplineSet
EndChar

StartChar: u
Encoding: 117 117 58
Width: 705
VWidth: 1155
Flags: HMW
LayerCount: 2
Fore
SplineSet
614 65 m 6
 654 65 l 2
 660 65 664 65 668 65 c 0
 677 65 680 63 680 48 c 2
 680 34 l 2
 680 0 680 0 646 0 c 2
 500 0 l 2
 494 0 489 0 484 -0 c 0
 464 0 460 3 460 32 c 2
 460 64 l 2
 460 85 459 93 457 93 c 0
 453 93 446 72 436 59 c 0
 404 16 356 -15 287 -15 c 0
 170 -15 115 44 115 151 c 2
 115 428 l 2
 115 430 115 431 115 433 c 0
 115 454 114 455 90 455 c 2
 52 455 l 2
 27 455 25 457 25 477 c 0
 25 480 25 483 25 486 c 2
 25 506 l 2
 25 519 34 521 44 521 c 0
 52 521 60 520 68 520 c 2
 194 520 l 2
 205 520 215 521 223 521 c 0
 237 521 245 517 245 494 c 2
 245 162 l 2
 245 88 259 57 310 57 c 0
 398 57 460 134 460 237 c 2
 460 438 l 2
 460 453 457 455 448 455 c 0
 444 455 440 455 434 455 c 2
 394 455 l 2
 392 455 391 455 389 455 c 0
 371 455 370 456 370 478 c 2
 370 502 l 2
 370 518 375 521 384 521 c 0
 389 521 395 520 402 520 c 2
 550 520 l 2
 556 520 561 520 566 520 c 0
 586 520 590 517 590 488 c 2
 590 112 l 2
 590 107 590 102 590 97 c 0
 590 76 592 65 614 65 c 6
EndSplineSet
EndChar

StartChar: v
Encoding: 118 118 59
Width: 619
VWidth: 1155
Flags: HMW
LayerCount: 2
Fore
SplineSet
361 184 m 2
 456 428 l 2
 460 437 465 444 465 448 c 0
 465 452 460 455 444 455 c 2
 414 455 l 2
 396 455 395 457 395 470 c 0
 395 472 395 475 395 478 c 2
 395 504 l 2
 395 518 399 521 408 521 c 0
 413 521 419 520 426 520 c 2
 606 520 l 2
 618 520 620 515 620 507 c 0
 620 502 619 497 619 490 c 2
 619 470 l 2
 619 453 616 455 600 455 c 2
 564 455 l 2
 537 455 540 444 533 426 c 2
 369 8 l 2
 362 -9 364 -15 340 -15 c 2
 308 -15 l 2
 273 -15 275 3 265 26 c 2
 90 420 l 2
 81 440 83 455 52 455 c 2
 20 455 l 2
 2 455 0 457 -0 469 c 0
 0 472 0 475 0 480 c 2
 0 502 l 2
 0 518 7 521 18 521 c 0
 25 521 33 520 42 520 c 2
 266 520 l 2
 271 520 274 520 277 520 c 0
 289 520 291 518 291 500 c 2
 291 480 l 2
 291 478 291 477 291 475 c 0
 291 456 290 455 268 455 c 2
 254 455 l 2
 249 455 245 455 242 455 c 0
 229 455 224 454 224 449 c 0
 224 446 226 440 229 432 c 6
 324 182 l 2
 328 172 332 163 334 154 c 0
 337 137 346 137 349 150 c 0
 351 160 356 171 361 184 c 2
EndSplineSet
EndChar

StartChar: w
Encoding: 119 119 60
Width: 895
VWidth: 1155
Flags: HMW
LayerCount: 2
Fore
SplineSet
321 196 m 0
 328 223 336 248 344 273 c 2
 420 496 l 2
 426 514 424 520 450 520 c 2
 480 520 l 2
 486 520 490 520 494 520 c 0
 505 520 511 519 515 506 c 2
 604 250 l 2
 613 224 621 198 628 170 c 0
 633 151 635 143 637 143 c 0
 640 143 642 154 647 174 c 2
 656 214 l 0
 667 249 l 0
 724 426 l 2
 727 436 730 443 730 447 c 0
 730 453 724 455 702 455 c 2
 662 455 l 2
 643 455 641 457 641 470 c 0
 641 473 641 477 641 482 c 2
 641 504 l 2
 641 518 644 520 653 520 c 0
 656 520 661 520 666 520 c 2
 870 520 l 2
 872 520 873 520 875 520 c 0
 894 520 895 519 895 496 c 2
 895 478 l 2
 895 455 895 455 872 455 c 2
 840 455 l 2
 811 455 813 449 806 428 c 2
 674 24 l 2
 665 -3 668 -10 631 -10 c 2
 595 -10 l 2
 563 -10 566 16 558 38 c 2
 478 273 l 2
 471 295 466 315 459 342 c 0
 455 357 449 357 445 342 c 0
 438 316 433 296 426 275 c 2
 339 24 l 2
 330 -2 332 -10 295 -10 c 2
 261 -10 l 2
 229 -10 232 7 225 30 c 6
 92 438 l 2
 87 454 86 455 64 455 c 2
 28 455 l 2
 25 455 22 455 19 455 c 0
 1 455 0 456 0 480 c 2
 0 504 l 2
 0 518 5 521 14 521 c 0
 19 521 25 520 32 520 c 2
 276 520 l 2
 283 520 290 521 296 521 c 0
 304 521 311 519 311 508 c 2
 311 478 l 2
 311 456 310 455 291 455 c 0
 289 455 288 455 286 455 c 2
 256 455 l 2
 231 455 223 453 223 445 c 0
 223 440 226 432 230 420 c 2
 270 290 l 2
 280 258 289 226 297 192 c 0
 303 168 305 156 308 156 c 0
 311 156 315 171 321 196 c 0
EndSplineSet
EndChar

StartChar: x
Encoding: 120 120 61
Width: 614
VWidth: 1155
Flags: HMW
LayerCount: 2
Fore
SplineSet
351 372 m 6
 405 434 l 2
 412 442 419 448 419 451 c 0
 419 454 414 455 399 455 c 0
 372 455 370 458 370 479 c 0
 370 482 370 485 370 488 c 2
 370 502 l 2
 370 518 373 520 384 520 c 0
 387 520 391 520 395 520 c 2
 561 520 l 2
 566 520 571 520 574 520 c 0
 581 520 584 518 584 506 c 2
 584 486 l 2
 584 481 584 477 584 474 c 0
 584 458 582 455 559 455 c 2
 531 455 l 2
 513 455 511 447 503 438 c 2
 402 320 l 2
 386 302 377 293 377 283 c 0
 377 275 383 267 396 252 c 2
 533 90 l 2
 547 73 548 65 581 65 c 2
 593 65 l 2
 614 65 614 65 614 44 c 2
 614 28 l 2
 614 22 614 18 614 14 c 0
 614 3 612 0 595 0 c 2
 383 0 l 2
 375 0 369 -1 363 -1 c 0
 354 -1 348 2 348 16 c 2
 348 34 l 2
 348 41 347 47 347 52 c 0
 347 60 350 65 363 65 c 0
 385 65 393 65 393 69 c 0
 393 72 389 77 381 86 c 2
 315 164 l 2
 303 178 297 186 291 186 c 0
 285 186 280 180 268 166 c 2
 206 94 l 2
 201 88 185 75 185 69 c 0
 185 67 187 65 193 65 c 0
 201 65 208 66 214 66 c 0
 223 66 229 63 229 50 c 2
 229 26 l 2
 229 23 229 20 229 17 c 0
 229 2 228 0 207 0 c 2
 41 0 l 2
 34 0 28 -1 23 -1 c 0
 15 -1 10 2 10 14 c 2
 10 54 l 2
 10 64 15 66 22 66 c 0
 26 66 32 65 37 65 c 2
 61 65 l 2
 95 65 98 79 113 96 c 2
 216 216 l 2
 230 232 237 240 237 248 c 0
 237 255 231 263 219 278 c 2
 81 442 l 2
 72 453 70 455 49 455 c 0
 39 455 28 453 20 453 c 0
 8 453 0 457 0 474 c 2
 0 494 l 2
 0 517 4 520 19 520 c 0
 24 520 30 520 37 520 c 2
 245 520 l 2
 248 520 251 520 254 520 c 0
 269 520 271 519 271 498 c 2
 271 480 l 2
 271 455 270 455 245 455 c 0
 233 455 228 454 228 452 c 0
 228 450 233 446 238 440 c 2
 298 368 l 2
 310 353 317 347 323 347 c 0
 330 347 337 356 351 372 c 6
EndSplineSet
EndChar

StartChar: y
Encoding: 121 121 62
Width: 638
VWidth: 1155
Flags: HMW
LayerCount: 2
Fore
SplineSet
151 -265 m 0
 54 -265 3 -195 3 -128 c 0
 3 -72 28 -23 89 -23 c 0
 139 -23 164 -56 164 -97 c 0
 164 -165 106 -160 106 -176 c 0
 106 -189 118 -205 151 -205 c 0
 190 -205 246 -180 293 -60 c 0
 297 -49 299 -41 299 -33 c 0
 299 -20 293 -9 285 10 c 2
 93 432 l 2
 85 449 87 455 61 455 c 2
 35 455 l 2
 27 455 21 454 16 454 c 0
 5 454 0 457 0 476 c 2
 0 502 l 2
 0 518 3 520 13 520 c 0
 17 520 21 520 27 520 c 2
 271 520 l 2
 290 520 291 517 291 504 c 0
 291 502 291 499 291 496 c 2
 291 470 l 2
 291 456 289 455 279 455 c 0
 277 455 274 455 271 455 c 2
 257 455 l 2
 234 455 227 453 227 447 c 0
 227 442 233 433 239 420 c 2
 316 247 l 2
 326 224 337 198 346 174 c 0
 353 156 360 146 367 146 c 0
 385 170 l 4
 396 200 407 233 419 262 c 2
 485 430 l 2
 488 437 493 444 493 449 c 0
 493 452 490 455 481 455 c 2
 453 455 l 2
 447 455 443 455 439 455 c 0
 427 455 423 457 423 476 c 2
 423 500 l 2
 423 518 429 521 440 521 c 0
 446 521 454 520 463 520 c 2
 609 520 l 2
 616 520 621 521 626 521 c 0
 634 521 638 518 638 506 c 2
 638 476 l 2
 638 457 636 455 623 455 c 0
 620 455 616 455 611 455 c 2
 587 455 l 2
 560 455 562 440 555 422 c 2
 347 -102 l 2
 295 -233 209 -265 151 -265 c 0
EndSplineSet
EndChar

StartChar: z
Encoding: 122 122 63
Width: 560
VWidth: 1155
Flags: HMW
LayerCount: 2
Fore
SplineSet
256 460 m 2
 153 460 119 423 119 354 c 0
 119 348 120 342 120 336 c 0
 120 326 117 318 104 318 c 2
 78 318 l 2
 60 318 57 325 57 337 c 0
 57 344 58 353 58 363 c 2
 58 489 l 2
 58 517 62 520 82 520 c 0
 87 520 92 520 98 520 c 2
 472 520 l 2
 480 520 487 521 493 521 c 0
 503 521 509 518 509 501 c 2
 509 483 l 2
 509 454 500 449 488 433 c 2
 222 97 l 2
 210 81 202 72 202 67 c 0
 202 61 214 60 241 60 c 0
 246 60 252 60 258 60 c 2
 299 60 l 2
 425 60 459 91 459 175 c 0
 459 182 458 188 458 194 c 0
 458 206 461 214 478 214 c 2
 498 214 l 2
 518 214 520 211 520 197 c 0
 520 194 520 190 520 185 c 2
 520 37 l 2
 520 29 520 22 520 17 c 0
 520 4 517 0 496 0 c 2
 78 0 l 6
 40 0 35 0 35 22 c 2
 35 41 l 2
 35 67 44 71 55 85 c 2
 328 421 l 2
 338 433 354 445 354 452 c 0
 354 457 347 460 328 460 c 2
 256 460 l 2
EndSplineSet
EndChar

StartChar: comma
Encoding: 44 44 65
Width: 265
Flags: HMW
LayerCount: 2
Fore
SplineSet
40 74 m 0
 40 117 79 153 127 153 c 0
 201 153 227 92 227 9 c 0
 227 -81 147 -143 65 -154 c 0
 60 -155 55 -155 52 -155 c 0
 41 -155 38 -150 38 -132 c 2
 38 -127 l 6
 38 -104 46 -107 65 -102 c 0
 107 -91 151 -58 158 -14 c 0
 161 5 160 7 146 2 c 0
 133 -3 120 -5 108 -5 c 0
 65 -5 40 31 40 74 c 0
EndSplineSet
EndChar

StartChar: exclam
Encoding: 33 33 67
Width: 359
Flags: HMW
LayerCount: 2
Fore
SplineSet
100 65 m 0
 100 109 136 145 180 145 c 0
 224 145 260 109 260 65 c 0
 260 21 224 -15 180 -15 c 0
 136 -15 100 21 100 65 c 0
258 649 m 0
 248 485 204 390 204 256 c 0
 204 252 204 248 204 244 c 0
 204 235 202 228 190 228 c 2
 163 228 l 2
 155 228 153 236 153 245 c 0
 153 250 154 256 154 260 c 4
 148 392 110 486 100 649 c 0
 100 656 100 662 100 668 c 0
 100 724 132 763 179 763 c 0
 226 763 259 724 259 668 c 0
 259 662 258 656 258 649 c 0
EndSplineSet
EndChar

StartChar: quotesingle
Encoding: 39 39 70
Width: 239
Flags: HMW
LayerCount: 2
Fore
SplineSet
188 679 m 16
 179 616 150 581 141 524 c 0
 138 508 145 488 124 488 c 2
 110 488 l 2
 99 488 98 497 98 507 c 0
 98 509 98 511 98 513 c 0
 98 516 98 519 98 521 c 4
 89 580 59 615 50 679 c 8
 49 686 49 691 49 697 c 0
 49 736 80 763 119 763 c 0
 158 763 189 736 189 697 c 0
 189 691 189 686 188 679 c 16
EndSplineSet
EndChar

StartChar: question
Encoding: 63 63 75
Width: 570
Flags: HMW
LayerCount: 2
Fore
SplineSet
164 662 m 0
 164 632 204 621 204 570 c 0
 204 528 172 500 127 500 c 0
 82 500 45 533 45 591 c 0
 45 673 119 765 271 765 c 0
 452 765 530 680 530 550 c 0
 530 459 454 379 342 346 c 0
 317 339 307 345 307 311 c 2
 307 279 l 2
 307 269 307 261 307 254 c 0
 307 234 304 229 272 229 c 2
 246 229 l 2
 229 229 226 235 226 246 c 0
 226 252 227 260 227 269 c 2
 227 335 l 2
 227 374 235 370 261 381 c 4
 346 416 389 478 389 570 c 0
 389 644 360 713 271 713 c 0
 197 713 164 684 164 662 c 0
EndSplineSet
Refer: 1 46 N 1 0 0 1 149 0 2
EndChar

StartChar: parenleft
Encoding: 40 40 76
Width: 465
Flags: HMW
LayerCount: 2
Fore
SplineSet
441 -123 m 6
 429 -158 l 2
 427 -165 421 -168 415 -168 c 0
 405 -168 392 -162 381 -158 c 0
 183 -95 55 80 55 325 c 0
 55 578 192 738 401 794 c 0
 408 796 414 799 419 799 c 0
 423 799 426 797 428 791 c 2
 440 756 l 2
 442 750 443 747 443 744 c 0
 443 739 439 738 428 735 c 0
 267 681 210 549 210 325 c 0
 210 108 264 -40 413 -99 c 0
 427 -105 442 -104 442 -116 c 0
 442 -118 442 -120 441 -123 c 6
EndSplineSet
EndChar

StartChar: asterisk
Encoding: 42 42 78
Width: 635
VWidth: 1155
Flags: HMW
LayerCount: 2
Fore
SplineSet
400 514 m 4
 445 502 486 504 537 484 c 0
 544 481 548 479 553 476 c 0
 575 463 586 442 586 420 c 0
 586 407 582 394 575 382 c 0
 561 359 539 346 516 346 c 0
 505 346 494 349 483 355 c 0
 478 358 474 361 468 365 c 0
 425 399 407 435 374 468 c 0
 366 476 357 489 362 468 c 0
 373 420 398 386 406 329 c 0
 407 322 407 317 407 311 c 0
 407 272 376 245 337 245 c 0
 298 245 267 272 267 311 c 0
 267 317 267 322 268 329 c 0
 276 383 298 417 310 462 c 0
 312 469 313 474 313 476 c 0
 313 478 313 478 312 478 c 0
 310 478 306 474 300 468 c 0
 267 435 249 399 206 365 c 0
 200 361 196 358 191 355 c 0
 180 349 169 346 158 346 c 0
 135 346 113 359 99 382 c 0
 92 394 88 407 88 420 c 0
 88 442 99 463 121 476 c 0
 126 479 130 481 137 484 c 0
 187 504 227 502 271 513 c 0
 282 516 288 518 288 520 c 0
 288 522 282 524 270 527 c 0
 227 538 187 536 137 556 c 0
 130 559 126 561 121 564 c 0
 99 577 88 598 88 620 c 0
 88 633 92 646 99 658 c 0
 113 681 135 694 158 694 c 0
 169 694 180 691 191 685 c 0
 196 682 200 679 206 675 c 0
 244 645 263 614 289 584 c 0
 299 573 307 565 310 565 c 0
 311 565 312 566 312 569 c 0
 312 573 310 581 306 594 c 0
 294 631 275 663 268 711 c 0
 267 718 267 723 267 729 c 0
 267 768 298 795 337 795 c 0
 376 795 407 768 407 729 c 0
 407 723 407 718 406 711 c 0
 399 664 381 633 369 596 c 0
 365 583 363 574 363 570 c 0
 363 567 364 566 365 566 c 0
 369 566 378 575 389 588 c 0
 413 616 432 646 468 675 c 0
 474 679 478 682 483 685 c 0
 494 691 505 694 516 694 c 0
 539 694 561 681 575 658 c 0
 582 646 586 633 586 620 c 0
 586 598 575 577 553 564 c 0
 548 561 544 559 537 556 c 0
 486 536 445 538 400 526 c 0
 390 524 386 522 386 520 c 0
 386 518 390 516 400 514 c 4
EndSplineSet
EndChar

StartChar: at
Encoding: 64 64 79
Width: 1060
VWidth: 1155
Flags: HMW
LayerCount: 2
Fore
SplineSet
644 346 m 0
 644 388 644 468 584 468 c 0
 510 468 455 364 455 240 c 0
 455 173 460 132 514 132 c 0
 557 132 604 175 628 246 c 1
 641 300 l 2
 643 315 644 330 644 346 c 0
812 -89 m 0
 730 -172 618 -219 469 -219 c 0
 306 -219 45 -112 45 221 c 0
 45 554 292 795 585 795 c 0
 858 795 1010 604 1010 421 c 0
 1010 261 912 70 741 70 c 0
 692 70 659 89 639 116 c 0
 626 133 623 141 619 141 c 0
 615 141 612 133 597 118 c 0
 567 87 529 70 484 70 c 0
 375 70 314 126 314 230 c 0
 314 380 409 529 568 529 c 0
 623 529 650 508 662 473 c 0
 670 451 673 441 675 441 c 0
 678 441 678 459 685 488 c 0
 690 510 686 520 715 520 c 2
 776 520 l 2
 782 520 787 520 792 520 c 0
 811 520 818 519 818 508 c 0
 818 503 816 497 814 487 c 2
 750 210 l 2
 749 205 747 194 747 182 c 0
 747 164 752 145 778 145 c 0
 879 145 937 271 937 425 c 0
 937 602 786 732 602 732 c 0
 368 732 190 503 190 231 c 0
 190 -71 361 -154 495 -154 c 0
 581 -154 662 -126 739 -61 c 0
 756 -47 775 -25 790 -25 c 0
 794 -25 797 -26 801 -30 c 6
 823 -52 l 2
 828 -57 831 -61 831 -65 c 0
 831 -73 822 -79 812 -89 c 0
EndSplineSet
EndChar

StartChar: dollar
Encoding: 36 36 80
Width: 660
Flags: HMW
LayerCount: 2
Fore
SplineSet
342 835 m 6
 379 835 l 2
 394 835 395 836 394 822 c 2
 391 777 l 2
 391 773 390 770 390 767 c 0
 390 754 395 755 413 752 c 0
 506 734 584 705 584 579 c 4
 584 521 539 503 510 503 c 0
 483 503 443 524 443 571 c 0
 443 607 485 612 485 635 c 0
 485 656 463 680 406 692 c 0
 400 693 396 694 393 694 c 0
 385 694 385 689 384 673 c 2
 372 488 l 2
 371 480 371 474 371 469 c 0
 371 459 374 455 388 452 c 0
 502 423 620 381 620 215 c 0
 620 86 528 5 373 -8 c 0
 371 -8 370 -8 368 -8 c 0
 365 -8 361 -8 358 -8 c 0
 348 -8 340 -9 339 -20 c 2
 337 -52 l 2
 335 -78 340 -85 311 -85 c 2
 283 -85 l 2
 278 -85 273 -85 270 -85 c 0
 263 -85 260 -83 261 -71 c 2
 264 -31 l 2
 264 -27 265 -23 265 -20 c 0
 265 -5 259 -6 240 -3 c 0
 104 19 36 74 36 186 c 4
 36 244 81 262 110 262 c 0
 137 262 177 241 177 194 c 0
 177 158 140 153 140 130 c 0
 140 109 165 76 237 60 c 0
 246 58 252 57 257 57 c 0
 268 57 270 64 271 87 c 2
 286 309 l 2
 286 315 287 320 287 324 c 0
 287 344 281 345 257 352 c 0
 159 381 70 425 70 555 c 0
 70 684 179 749 291 759 c 0
 312 761 315 757 316 779 c 2
 319 819 l 2
 320 834 322 835 333 835 c 0
 335 835 339 835 342 835 c 6
180 585 m 0
 180 530 217 503 270 484 c 0
 279 481 285 479 289 479 c 0
 296 479 297 485 298 505 c 2
 309 669 l 2
 309 671 309 673 309 675 c 0
 309 693 304 698 294 698 c 0
 287 698 277 695 265 692 c 0
 206 677 180 638 180 585 c 0
510 190 m 0
 510 260 461 291 396 313 c 0
 385 317 377 322 371 322 c 0
 365 322 361 316 360 300 c 2
 347 92 l 2
 346 81 345 73 345 67 c 0
 345 57 348 52 361 52 c 0
 364 52 368 53 372 53 c 0
 475 66 510 129 510 190 c 0
EndSplineSet
EndChar

StartChar: numbersign
Encoding: 35 35 81
Width: 660
Flags: HMW
LayerCount: 2
Fore
SplineSet
248 805 m 6
 278 805 l 2
 291 805 294 804 294 798 c 0
 294 795 294 791 293 786 c 2
 267 563 l 2
 266 557 265 552 265 549 c 0
 265 540 270 540 288 540 c 2
 396 540 l 2
 424 540 420 548 423 572 c 2
 448 786 l 2
 450 802 448 805 467 805 c 2
 500 805 l 2
 515 805 515 805 513 792 c 2
 488 572 l 2
 487 563 485 556 485 551 c 0
 485 543 489 540 507 540 c 2
 650 540 l 2
 661 540 670 544 670 532 c 2
 670 500 l 2
 670 494 671 490 671 486 c 0
 671 479 669 475 657 475 c 2
 505 475 l 2
 500 475 495 475 492 475 c 0
 479 475 476 473 474 456 c 2
 458 315 l 2
 457 308 456 303 456 299 c 0
 456 292 459 290 474 290 c 2
 625 290 l 2
 639 290 640 291 640 276 c 2
 640 241 l 2
 640 227 638 225 629 225 c 0
 626 225 622 225 618 225 c 2
 473 225 l 2
 448 225 448 225 445 202 c 2
 418 -26 l 2
 416 -46 421 -55 397 -55 c 2
 364 -55 l 2
 353 -55 350 -52 350 -47 c 0
 350 -43 352 -36 353 -29 c 2
 379 192 l 2
 380 201 382 209 382 214 c 0
 382 222 377 225 358 225 c 2
 254 225 l 2
 227 225 228 224 225 200 c 2
 198 -33 l 2
 196 -54 196 -55 172 -55 c 2
 147 -55 l 2
 134 -55 130 -52 130 -46 c 0
 130 -41 132 -35 133 -27 c 2
 160 204 l 2
 160 209 161 213 161 216 c 0
 161 225 157 225 139 225 c 2
 17 225 l 2
 12 225 8 225 5 225 c 0
 -8 225 -10 227 -10 247 c 2
 -10 268 l 2
 -10 271 -10 274 -10 276 c 0
 -10 288 -9 290 9 290 c 2
 151 290 l 2
 175 290 171 298 173 318 c 2
 189 456 l 2
 189 461 190 464 190 467 c 0
 190 475 186 475 174 475 c 0
 172 475 171 475 169 475 c 2
 41 475 l 2
 20 475 20 475 20 496 c 2
 20 527 l 2
 20 539 26 541 34 541 c 0
 40 541 47 540 54 540 c 2
 170 540 l 2
 201 540 200 542 203 569 c 2
 228 785 l 2
 230 802 228 805 248 805 c 6
381 475 m 6
 288 475 l 2
 284 475 281 475 278 475 c 0
 259 475 257 474 254 451 c 2
 238 312 l 2
 237 306 237 301 237 298 c 0
 237 291 240 290 257 290 c 2
 355 290 l 2
 389 290 390 290 394 320 c 2
 409 456 l 2
 409 459 410 462 410 464 c 0
 410 474 405 475 396 475 c 0
 392 475 387 475 381 475 c 6
EndSplineSet
EndChar

StartChar: slash
Encoding: 47 47 82
Width: 520
Flags: HMW
LayerCount: 2
Fore
SplineSet
428 780 m 6
 455 780 l 2
 471 780 476 774 476 766 c 0
 476 752 461 730 455 714 c 2
 151 -93 l 2
 141 -119 142 -150 104 -150 c 2
 65 -150 l 2
 49 -150 43 -145 43 -138 c 0
 43 -128 55 -113 60 -99 c 2
 381 741 l 2
 391 768 388 780 428 780 c 6
EndSplineSet
EndChar

StartChar: percent
Encoding: 37 37 83
Width: 1000
Flags: HMW
LayerCount: 2
Fore
SplineSet
695 210 m 0
 695 108 701 45 765 45 c 0
 829 45 835 108 835 210 c 0
 835 312 829 375 765 375 c 0
 701 375 695 312 695 210 c 0
555 210 m 0
 555 353 642 435 765 435 c 0
 888 435 975 353 975 210 c 0
 975 67 868 -15 765 -15 c 0
 642 -15 555 67 555 210 c 0
709 750 m 6
 745 750 l 2
 757 750 761 748 761 743 c 0
 761 735 748 721 742 711 c 2
 356 54 l 2
 339 25 338 0 289 0 c 2
 265 0 l 2
 246 0 240 3 240 9 c 0
 240 18 254 31 262 45 c 2
 663 720 l 2
 675 740 675 750 709 750 c 6
165 540 m 0
 165 438 171 375 235 375 c 0
 299 375 305 438 305 540 c 0
 305 642 299 705 235 705 c 0
 171 705 165 642 165 540 c 0
25 540 m 0
 25 683 112 765 235 765 c 0
 358 765 445 683 445 540 c 0
 445 397 338 315 235 315 c 0
 112 315 25 397 25 540 c 0
EndSplineSet
EndChar

StartChar: hyphen
Encoding: 45 45 85
Width: 460
Flags: HMW
LayerCount: 2
Fore
SplineSet
87 425 m 2
 385 425 l 2
 402 425 400 422 400 406 c 2
 400 367 l 6
 400 350 401 350 376 350 c 6
 82 350 l 2
 63 350 60 351 60 368 c 2
 60 404 l 2
 60 424 69 425 87 425 c 2
EndSplineSet
EndChar

StartChar: plus
Encoding: 43 43 87
Width: 530
Flags: HMW
LayerCount: 2
Fore
SplineSet
195 283 m 2
 85 283 l 2
 60 283 60 283 60 308 c 6
 60 328 l 2
 60 346 62 348 74 348 c 0
 77 348 80 348 85 348 c 2
 201 348 l 2
 204 348 207 348 210 348 c 0
 230 348 233 350 233 376 c 2
 233 494 l 2
 233 496 233 497 233 499 c 0
 233 519 234 520 257 520 c 2
 281 520 l 2
 295 520 298 515 298 507 c 0
 298 502 297 497 297 490 c 2
 297 384 l 2
 297 376 296 369 296 364 c 0
 296 354 299 348 317 348 c 2
 439 348 l 2
 446 348 452 349 457 349 c 0
 466 349 470 346 470 332 c 2
 470 300 l 2
 470 285 466 282 457 282 c 0
 452 282 446 283 439 283 c 2
 325 283 l 2
 319 283 314 284 310 284 c 0
 302 284 297 281 297 268 c 2
 297 136 l 2
 297 134 297 133 297 131 c 0
 297 111 296 110 273 110 c 2
 251 110 l 2
 235 110 233 114 233 124 c 0
 233 128 233 133 233 140 c 2
 233 260 l 2
 233 281 228 284 215 284 c 0
 210 284 203 283 195 283 c 2
EndSplineSet
EndChar

StartChar: less
Encoding: 60 60 89
Width: 560
Flags: HMW
LayerCount: 2
Fore
SplineSet
192 369 m 6
 458 266 l 2
 486 255 500 259 500 217 c 2
 500 187 l 2
 500 172 496 167 490 167 c 0
 482 167 470 176 458 181 c 2
 82 326 l 2
 66 332 60 331 60 355 c 24
 60 380 60 395 60 420 c 24
 60 447 72 445 90 452 c 2
 460 595 l 2
 470 599 483 608 491 608 c 0
 496 608 500 604 500 593 c 2
 500 565 l 2
 500 517 489 521 456 508 c 2
 188 404 l 2
 165 395 154 391 154 387 c 0
 154 383 167 378 192 369 c 6
EndSplineSet
EndChar

StartChar: backslash
Encoding: 92 92 91
Width: 520
Flags: HMW
LayerCount: 2
Fore
SplineSet
135 750 m 6
 452 -78 l 2
 457 -92 475 -120 475 -137 c 0
 475 -145 471 -150 461 -150 c 2
 425 -150 l 2
 384 -150 387 -139 376 -111 c 2
 57 735 l 2
 52 748 43 760 43 769 c 0
 43 776 48 780 65 780 c 2
 101 780 l 2
 130 780 127 770 135 750 c 6
EndSplineSet
EndChar

StartChar: bracketleft
Encoding: 91 91 92
Width: 345
Flags: HMW
LayerCount: 2
Fore
SplineSet
315 735 m 4
 315 705 314 705 284 705 c 2
 224 705 l 2
 187 705 185 702 185 674 c 0
 185 670 185 665 185 660 c 2
 185 -9 l 2
 185 -21 185 -31 185 -39 c 0
 185 -69 190 -75 236 -75 c 2
 284 -75 l 2
 286 -75 287 -75 289 -75 c 0
 314 -75 315 -76 315 -105 c 0
 315 -110 315 -115 315 -119 c 0
 315 -148 313 -150 275 -150 c 2
 83 -150 l 2
 58 -150 54 -142 54 -127 c 0
 54 -120 55 -110 55 -99 c 2
 55 738 l 2
 55 776 62 781 85 781 c 0
 93 781 103 780 116 780 c 2
 260 780 l 2
 268 780 275 780 281 780 c 0
 310 780 315 777 315 735 c 4
EndSplineSet
EndChar

StartChar: braceleft
Encoding: 123 123 93
Width: 292
VWidth: 1155
Flags: HMW
LayerCount: 2
Fore
SplineSet
234 -149 m 4
 106 -143 35 -93 35 -10 c 0
 35 127 115 162 115 225 c 0
 115 258 95 267 72 275 c 0
 56 280 55 283 55 301 c 0
 55 303 55 306 55 308 c 2
 55 332 l 2
 55 359 72 354 88 362 c 0
 104 370 115 381 115 406 c 0
 115 469 35 504 35 641 c 0
 35 714 89 760 188 775 c 0
 198 777 213 779 227 779 c 0
 246 779 262 775 262 759 c 6
 262 731 l 2
 262 705 245 714 226 710 c 0
 188 702 168 676 168 627 c 0
 168 551 202 531 202 431 c 0
 202 399 191 372 173 350 c 0
 159 332 143 327 143 318 c 0
 143 314 146 308 155 300 c 0
 183 275 202 242 202 200 c 0
 202 100 168 80 168 4 c 0
 168 -45 188 -70 226 -79 c 0
 255 -85 262 -77 262 -114 c 2
 262 -130 l 2
 262 -147 259 -150 250 -150 c 0
 246 -150 241 -149 234 -149 c 4
EndSplineSet
EndChar

StartChar: bar
Encoding: 124 124 96
Width: 300
VWidth: 1155
Flags: HMW
LayerCount: 2
Fore
SplineSet
124 780 m 6
 174 780 l 2
 193 780 195 775 195 764 c 0
 195 760 195 755 195 748 c 2
 195 -228 l 2
 195 -249 196 -250 174 -250 c 2
 130 -250 l 2
 107 -250 105 -247 105 -232 c 0
 105 -228 105 -223 105 -217 c 2
 105 762 l 2
 105 780 106 780 124 780 c 6
EndSplineSet
EndChar

StartChar: cent
Encoding: 162 162 98
Width: 563
VWidth: 1155
Flags: HMW
LayerCount: 2
Fore
SplineSet
313 615 m 2
 337 615 l 2
 359 615 364 613 364 604 c 0
 364 599 362 591 361 581 c 4
 359 558 357 546 357 539 c 0
 357 527 363 531 387 524 c 0
 478 498 520 433 520 373 c 0
 520 315 475 280 436 280 c 0
 389 280 359 306 359 353 c 0
 359 399 402 406 402 428 c 0
 402 438 391 450 373 458 c 0
 364 462 357 464 353 464 c 0
 346 464 343 458 341 441 c 2
 293 101 l 2
 291 87 287 75 287 66 c 0
 287 55 293 49 315 49 c 0
 380 49 422 84 448 148 c 0
 456 167 453 173 482 173 c 2
 512 173 l 2
 523 173 526 168 526 162 c 0
 526 152 518 138 514 128 c 0
 481 44 415 -15 303 -15 c 0
 298 -15 293 -15 290 -15 c 0
 277 -15 275 -17 273 -35 c 2
 270 -55 l 2
 267 -79 270 -85 241 -85 c 2
 225 -85 l 2
 200 -85 193 -85 193 -73 c 0
 193 -69 194 -63 195 -55 c 2
 199 -27 l 2
 200 -21 200 -16 200 -12 c 0
 200 8 190 6 169 17 c 0
 85 63 40 153 40 250 c 0
 40 378 112 496 234 527 c 0
 272 537 279 529 285 571 c 0
 289 596 282 615 313 615 c 2
226 157 m 2
 264 423 l 2
 265 432 266 439 266 444 c 0
 266 451 264 455 261 455 c 0
 257 455 250 450 240 441 c 0
 202 407 185 345 185 270 c 0
 185 221 189 177 201 141 c 0
 208 121 212 112 215 112 c 0
 220 112 222 130 226 157 c 2
EndSplineSet
EndChar

StartChar: sterling
Encoding: 163 163 99
Width: 590
VWidth: 1155
Flags: HMW
LayerCount: 2
Fore
SplineSet
413 377 m 6
 413 343 l 2
 413 323 406 319 394 319 c 0
 387 319 378 320 368 320 c 2
 296 320 l 2
 265 320 274 307 270 283 c 0
 254 193 176 169 126 111 c 0
 98 79 82 57 82 53 c 0
 82 53 l 0
 85 53 99 65 128 95 c 0
 151 119 186 127 220 127 c 0
 300 127 340 83 406 83 c 0
 442 83 478 93 498 116 c 0
 511 131 504 157 530 157 c 2
 552 157 l 2
 567 157 571 152 571 143 c 0
 571 138 570 132 569 125 c 0
 558 5 482 -35 400 -35 c 0
 303 -35 248 25 175 25 c 0
 154 25 133 21 116 13 c 0
 97 4 92 -20 71 -20 c 2
 38 -20 l 2
 21 -20 17 -8 17 6 c 0
 17 18 20 31 22 41 c 0
 43 143 147 207 147 261 c 0
 147 307 145 320 94 320 c 2
 -8 320 l 2
 -36 320 -37 321 -37 346 c 0
 -37 348 -37 349 -37 351 c 2
 -37 371 l 2
 -37 393 -32 395 -19 395 c 0
 -14 395 -9 395 -2 395 c 2
 60 395 l 0
 102 395 l 1
 93 411 83 427 75 443 c 0
 58 475 46 509 46 550 c 0
 46 690 171 765 332 765 c 0
 484 765 568 698 568 606 c 0
 568 548 533 520 494 520 c 0
 457 520 418 541 418 588 c 0
 418 624 450 629 450 652 c 0
 450 679 406 703 332 703 c 0
 213 703 197 634 197 560 c 0
 197 507 219 464 239 423 c 0
 247 406 246 395 272 395 c 2
 378 395 l 2
 386 395 393 396 398 396 c 0
 408 396 413 393 413 377 c 6
EndSplineSet
EndChar

StartChar: section
Encoding: 167 167 101
Width: 534
VWidth: 1155
Flags: HMW
LayerCount: 2
Fore
SplineSet
347 658 m 0
 347 684 295 699 243 699 c 0
 180 699 145 681 145 634 c 0
 145 518 488 538 488 375 c 0
 488 342 471 311 444 284 c 0
 429 269 421 263 421 258 c 0
 421 253 428 248 444 235 c 0
 471 213 488 183 488 142 c 0
 488 38 348 -15 253 -15 c 0
 145 -15 9 22 9 138 c 0
 9 196 54 219 83 219 c 0
 120 219 150 193 150 156 c 0
 150 120 118 115 118 92 c 0
 118 66 190 51 242 51 c 0
 305 51 370 69 370 116 c 0
 370 232 27 212 27 375 c 0
 27 410 47 443 77 472 c 0
 88 483 92 490 92 495 c 0
 92 507 71 511 52 534 c 4
 36 553 27 578 27 608 c 0
 27 712 137 765 232 765 c 0
 340 765 456 728 456 612 c 0
 456 554 421 536 392 536 c 0
 365 536 315 557 315 594 c 0
 315 630 347 635 347 658 c 0
362 343 m 4
 362 401 296 425 222 448 c 0
 205 453 191 458 180 458 c 0
 162 458 153 446 153 407 c 0
 153 345 229 323 308 298 c 0
 319 295 328 293 335 293 c 0
 355 293 362 307 362 343 c 4
EndSplineSet
EndChar

StartChar: asciitilde
Encoding: 126 126 104
Width: 688
VWidth: 1155
Flags: HMW
LayerCount: 2
Fore
SplineSet
243 437 m 0
 197 437 177 420 170 386 c 0
 166 366 176 343 148 343 c 2
 114 343 l 2
 95 343 89 353 89 365 c 0
 89 377 95 392 98 404 c 0
 118 480 177 520 249 520 c 0
 369 520 359 416 435 416 c 0
 488 416 512 438 519 482 c 0
 523 507 518 510 548 510 c 2
 574 510 l 2
 593 510 598 509 598 497 c 0
 598 494 597 491 597 486 c 4
 588 386 522 333 439 333 c 0
 302 333 326 437 243 437 c 0
EndSplineSet
EndChar

StartChar: copyright
Encoding: 169 169 105
Width: 870
Flags: HMW
LayerCount: 2
Fore
SplineSet
40 375 m 4
 40 588 218 760 435 760 c 4
 652 760 830 588 830 375 c 4
 830 162 652 -10 435 -10 c 4
 218 -10 40 162 40 375 c 4
100 375 m 4
 100 190 250 39 435 39 c 4
 620 39 770 190 770 375 c 4
 770 560 620 711 435 711 c 4
 250 711 100 560 100 375 c 4
EndSplineSet
Refer: 14 67 N 0.6 0 0 0.6 182 150 2
EndChar

StartChar: registered
Encoding: 174 174 106
Width: 870
Flags: HMW
LayerCount: 2
Fore
SplineSet
40 375 m 0
 40 588 218 760 435 760 c 0
 652 760 830 588 830 375 c 0
 830 162 652 -10 435 -10 c 0
 218 -10 40 162 40 375 c 0
100 375 m 0
 100 190 250 39 435 39 c 0
 620 39 770 190 770 375 c 0
 770 560 620 711 435 711 c 0
 250 711 100 560 100 375 c 0
EndSplineSet
Refer: 29 82 N 0.6 0 0 0.6 198 148 2
EndChar

StartChar: guillemotleft
Encoding: 171 171 108
Width: 695
Flags: HMW
LayerCount: 2
Fore
SplineSet
463 360 m 2
 637 214 l 2
 648 205 661 199 661 189 c 0
 661 186 660 182 657 178 c 2
 642 155 l 2
 639 150 635 148 632 148 c 0
 625 148 618 157 609 163 c 2
 327 360 l 2
 317 367 305 369 305 387 c 4
 305 396 303 398 327 415 c 6
 607 610 l 2
 618 618 624 626 631 626 c 0
 635 626 639 623 644 616 c 2
 654 601 l 2
 658 594 660 590 660 586 c 0
 660 579 652 575 641 565 c 2
 458 410 l 2
 444 398 438 392 438 386 c 0
 438 379 447 374 463 360 c 2
183 360 m 2
 357 214 l 2
 368 205 381 199 381 189 c 0
 381 186 380 182 377 178 c 2
 362 155 l 2
 359 150 355 148 352 148 c 0
 345 148 338 157 329 163 c 2
 47 360 l 2
 37 367 25 369 25 387 c 0
 25 406 36 407 47 415 c 2
 327 610 l 2
 338 618 344 626 351 626 c 0
 355 626 359 623 364 616 c 2
 374 601 l 2
 378 594 380 590 380 586 c 0
 380 579 372 575 361 565 c 2
 178 410 l 2
 164 398 158 392 158 386 c 0
 158 379 167 374 183 360 c 2
EndSplineSet
EndChar

StartChar: mu
Encoding: 181 181 111
Width: 705
VWidth: 1155
Flags: HMW
LayerCount: 2
Fore
SplineSet
256 -143 m 0
 289 -143 312 -167 312 -201 c 0
 312 -236 279 -260 241 -260 c 0
 179 -260 115 -211 115 -122 c 2
 115 151 l 1
 115 321 l 1
 115 428 l 2
 115 430 115 431 115 433 c 0
 115 454 114 455 90 455 c 2
 52 455 l 2
 27 455 25 457 25 477 c 0
 25 480 25 483 25 486 c 2
 25 506 l 2
 25 519 34 521 44 521 c 0
 52 521 60 520 68 520 c 2
 194 520 l 2
 205 520 215 521 223 521 c 0
 237 521 245 517 245 494 c 2
 245 162 l 2
 245 88 259 57 310 57 c 0
 398 57 460 134 460 237 c 2
 460 438 l 2
 460 453 457 455 448 455 c 0
 444 455 440 455 434 455 c 2
 394 455 l 2
 392 455 391 455 389 455 c 0
 371 455 370 456 370 478 c 2
 370 502 l 2
 370 518 375 521 384 521 c 0
 389 521 395 520 402 520 c 2
 550 520 l 2
 556 520 561 520 566 520 c 0
 586 520 590 517 590 488 c 2
 590 112 l 2
 590 101 589 92 589 85 c 0
 589 72 593 65 614 65 c 2
 654 65 l 2
 660 65 664 65 668 65 c 0
 677 65 680 63 680 48 c 2
 680 34 l 2
 680 0 680 0 646 0 c 2
 500 0 l 2
 494 0 489 0 484 -0 c 0
 464 0 460 3 460 32 c 2
 460 64 l 2
 460 85 459 93 457 93 c 0
 453 93 446 72 436 59 c 0
 404 16 356 -15 287 -15 c 0
 250 -15 219 -9 194 3 c 0
 181 9 174 15 170 15 c 0
 166 15 165 8 165 -15 c 6
 165 -119 l 2
 165 -156 189 -162 202 -162 c 0
 222 -162 221 -143 256 -143 c 0
EndSplineSet
EndChar

StartChar: asciicircum
Encoding: 94 94 113
Width: 545
Flags: HMW
LayerCount: 2
Fore
SplineSet
230 660 m 6
 164 611 l 2
 140 593 118 567 90 567 c 0
 84 567 78 568 71 571 c 0
 60 576 55 580 55 584 c 0
 55 590 66 596 77 607 c 2
 206 736 l 2
 223 753 229 770 263 770 c 2
 284 770 l 2
 304 770 308 767 317 758 c 2
 458 617 l 2
 471 604 489 593 489 584 c 0
 489 579 484 575 473 570 c 0
 465 566 459 565 453 565 c 0
 439 565 429 575 413 587 c 2
 317 658 l 2
 295 674 284 682 272 682 c 0
 261 682 250 675 230 660 c 6
EndSplineSet
EndChar

StartChar: degree
Encoding: 176 176 115
Width: 320
Flags: HMW
LayerCount: 2
Fore
SplineSet
40 680 m 0
 40 746 94 800 160 800 c 0
 226 800 280 746 280 680 c 0
 280 614 226 560 160 560 c 0
 94 560 40 614 40 680 c 0
95 680 m 0
 95 643 123 615 160 615 c 4
 197 615 225 643 225 680 c 0
 225 717 197 745 160 745 c 4
 123 745 95 717 95 680 c 0
EndSplineSet
EndChar

StartChar: onequarter
Encoding: 188 188 119
Width: 1000
Flags: HMW
LayerCount: 2
Fore
SplineSet
720 750 m 6
 744 750 l 6
 757 750 762 748 762 744 c 0
 762 739 754 733 749 724 c 6
 324 32 l 6
 312 12 312 0 278 0 c 6
 256 0 l 6
 243 0 239 3 239 7 c 0
 239 14 251 26 257 36 c 6
 686 726 l 6
 695 741 695 750 720 750 c 6
EndSplineSet
Refer: 6 52 N 0.6 0 0 0.6 535 32 2
Refer: 3 49 N 0.6 0 0 0.6 107 456 2
EndChar

StartChar: onehalf
Encoding: 189 189 120
Width: 1000
Flags: HMW
LayerCount: 2
Fore
SplineSet
720 750 m 6
 744 750 l 6
 757 750 762 748 762 744 c 0
 762 739 754 733 749 724 c 6
 324 32 l 6
 312 12 312 0 278 0 c 6
 256 0 l 6
 243 0 239 3 239 7 c 0
 239 14 251 26 257 36 c 6
 686 726 l 6
 695 741 695 750 720 750 c 6
EndSplineSet
Refer: 4 50 N 0.6 0 0 0.6 576 17 2
Refer: 3 49 N 0.6 0 0 0.6 107 456 2
EndChar

StartChar: threequarters
Encoding: 190 190 121
Width: 1000
Flags: HMW
LayerCount: 2
Fore
SplineSet
720 750 m 6
 744 750 l 6
 757 750 762 748 762 744 c 0
 762 739 754 733 749 724 c 6
 324 32 l 6
 312 12 312 0 278 0 c 6
 256 0 l 6
 243 0 239 3 239 7 c 0
 239 14 251 26 257 36 c 6
 686 726 l 6
 695 741 695 750 720 750 c 6
EndSplineSet
Refer: 6 52 N 0.6 0 0 0.6 535 32 2
Refer: 5 51 N 0.6 0 0 0.6 65 457 2
EndChar

StartChar: grave
Encoding: 96 96 123
Width: 395
Flags: HMW
LayerCount: 2
Fore
SplineSet
190 700 m 2
 171 701 145 716 145 745 c 0
 145 770 166 790 189 790 c 0
 193 790 196 789 200 788 c 2
 384 737 l 2
 401 732 426 734 426 713 c 0
 426 699 418 694 408 694 c 0
 400 694 391 696 382 696 c 6
 190 700 l 2
EndSplineSet
EndChar

StartChar: acute
Encoding: 180 180 124
Width: 395
Flags: HMW
LayerCount: 2
Fore
SplineSet
185 710 m 2
 -50 705 l 1
 -52 735 l 1
 175 798 l 2
 179 799 182 800 186 800 c 0
 209 800 230 780 230 755 c 0
 230 726 204 711 185 710 c 2
EndSplineSet
EndChar

StartChar: cedilla
Encoding: 184 184 128
Width: 550
Flags: HMW
LayerCount: 2
Fore
SplineSet
225 -181 m 4
 232 -181 239 -181 245 -181 c 0
 306 -181 329 -168 329 -150 c 0
 329 -120 291 -103 191 -100 c 0
 171 -99 164 -96 164 -90 c 0
 164 -80 184 -65 195 -51 c 2
 267 41 l 1
 357 41 l 1
 324 -1 l 2
 305 -25 294 -36 294 -44 c 0
 294 -53 308 -57 343 -71 c 0
 385 -87 410 -112 410 -140 c 0
 410 -187 361 -241 219 -241 c 0
 218 -241 216 -241 215 -241 c 0
 209 -241 205 -241 201 -241 c 0
 187 -241 181 -239 181 -217 c 0
 181 -185 184 -180 200 -180 c 0
 206 -180 215 -181 225 -181 c 4
EndSplineSet
EndChar

StartChar: AE
Encoding: 198 198 526
Width: 1197
Flags: HMW
LayerCount: 2
Fore
SplineSet
290 295 m 1
 640 295 l 1
 640 220 l 1
 290 220 l 1
 290 295 l 1
0 75 m 1
 300 75 l 5
 300 0 l 5
 0 0 l 1
 0 75 l 1
596 750 m 1
 685 750 l 1
 169 0 l 1
 75 0 l 1
 596 750 l 1
EndSplineSet
Refer: 16 69 N 1 0 0 1 460 0 2
EndChar

StartChar: ae
Encoding: 230 230 529
Width: 875
VWidth: 1155
Flags: HMW
LayerCount: 2
Fore
SplineSet
346 250 m 1
 487 275 l 1
 487 151 507 54 616 54 c 0
 689 54 728 93 753 173 c 1
 824 173 l 1
 798 66 735 -15 604 -15 c 0
 433 -15 346 110 346 250 c 1
463 319 m 1
 757 319 l 1
 757 256 l 1
 463 256 l 1
 463 319 l 1
830 256 m 1
 690 256 l 1
 690 264 690 272 690 280 c 0
 690 376 687 476 600 476 c 0
 511 476 487 374 487 270 c 1
 386 250 l 1
 386 410 430 535 611 535 c 0
 810 535 830 385 830 256 c 1
304 294 m 1
 304 246 l 1
 188 246 162 180 162 143 c 0
 162 86 205 61 245 61 c 0
 303 61 346 95 346 186 c 1
 405 174 l 5
 405 50 301 -15 200 -15 c 0
 91 -15 25 34 25 128 c 0
 25 222 112 294 304 294 c 1
476 352 m 1
 486 106 l 1
 346 128 l 1
 346 372 l 1
 476 352 l 1
45 383 m 1
 45 470 157 535 268 535 c 0
 388 535 456 473 456 352 c 1
 346 362 l 1
 346 429 333 474 253 474 c 0
 199 474 168 457 168 442 c 1
 45 383 l 1
304 294 m 1
 448 294 l 1
 448 246 l 1
 304 246 l 1
 304 294 l 1
199 379 m 0
 199 335 168 310 124 310 c 0
 78 310 45 339 45 383 c 1
 168 442 l 1
 168 429 199 427 199 379 c 0
EndSplineSet
EndChar

StartChar: perthousand
Encoding: 8240 8240 537
Width: 1470
Flags: HMW
LayerCount: 2
Fore
SplineSet
1165 210 m 0
 1165 108 1171 45 1235 45 c 0
 1299 45 1305 108 1305 210 c 0
 1305 312 1299 375 1235 375 c 0
 1171 375 1165 312 1165 210 c 0
1025 210 m 0
 1025 353 1112 435 1235 435 c 0
 1358 435 1445 353 1445 210 c 0
 1445 67 1338 -15 1235 -15 c 0
 1112 -15 1025 67 1025 210 c 0
695 210 m 0
 695 108 701 45 765 45 c 0
 829 45 835 108 835 210 c 0
 835 312 829 375 765 375 c 0
 701 375 695 312 695 210 c 0
555 210 m 0
 555 353 642 435 765 435 c 0
 888 435 975 353 975 210 c 0
 975 67 868 -15 765 -15 c 0
 642 -15 555 67 555 210 c 0
698 750 m 6
 733 750 l 6
 754 750 761 748 761 743 c 0
 761 738 754 731 747 719 c 6
 344 34 l 6
 329 9 330 0 288 0 c 6
 260 0 l 6
 246 0 240 4 240 10 c 0
 240 22 259 41 267 54 c 6
 666 724 l 6
 674 738 674 750 698 750 c 6
165 540 m 0
 165 438 171 375 235 375 c 0
 299 375 305 438 305 540 c 0
 305 642 299 705 235 705 c 0
 171 705 165 642 165 540 c 0
25 540 m 0
 25 683 112 765 235 765 c 0
 358 765 445 683 445 540 c 0
 445 397 338 315 235 315 c 0
 112 315 25 397 25 540 c 0
EndSplineSet
EndChar

StartChar: uni2031
Encoding: 8241 8241 538
Width: 1950
Flags: HMW
LayerCount: 2
Fore
SplineSet
698 750 m 2
 733 750 l 2
 754 750 761 748 761 743 c 0
 761 738 754 731 747 719 c 2
 344 34 l 2
 329 9 330 0 288 0 c 2
 260 0 l 2
 246 0 240 4 240 10 c 0
 240 22 259 41 267 54 c 2
 666 724 l 2
 674 738 674 750 698 750 c 2
1645 210 m 0
 1645 108 1651 45 1715 45 c 0
 1779 45 1785 108 1785 210 c 0
 1785 312 1779 375 1715 375 c 0
 1651 375 1645 312 1645 210 c 0
1505 210 m 0
 1505 353 1592 435 1715 435 c 0
 1838 435 1925 353 1925 210 c 0
 1925 67 1818 -15 1715 -15 c 0
 1592 -15 1505 67 1505 210 c 0
1995 210 m 1024
1165 210 m 0
 1165 108 1171 45 1235 45 c 0
 1299 45 1305 108 1305 210 c 0
 1305 312 1299 375 1235 375 c 0
 1171 375 1165 312 1165 210 c 0
1025 210 m 0
 1025 353 1112 435 1235 435 c 0
 1358 435 1445 353 1445 210 c 0
 1445 67 1338 -15 1235 -15 c 0
 1112 -15 1025 67 1025 210 c 0
695 210 m 0
 695 108 701 45 765 45 c 0
 829 45 835 108 835 210 c 0
 835 312 829 375 765 375 c 0
 701 375 695 312 695 210 c 0
555 210 m 0
 555 353 642 435 765 435 c 0
 888 435 975 353 975 210 c 0
 975 67 868 -15 765 -15 c 0
 642 -15 555 67 555 210 c 0
165 540 m 0
 165 438 171 375 235 375 c 0
 299 375 305 438 305 540 c 0
 305 642 299 705 235 705 c 0
 171 705 165 642 165 540 c 0
25 540 m 0
 25 683 112 765 235 765 c 0
 358 765 445 683 445 540 c 0
 445 397 338 315 235 315 c 0
 112 315 25 397 25 540 c 0
EndSplineSet
EndChar

StartChar: uniFB00
Encoding: 64256 64256 542
Width: 765
VWidth: 1155
Flags: HMW
LayerCount: 2
Fore
SplineSet
245 424 m 6
 245 94 l 2
 245 91 245 88 245 85 c 0
 245 67 246 65 270 65 c 2
 316 65 l 2
 322 65 328 65 332 65 c 0
 342 65 345 63 345 46 c 2
 345 16 l 2
 345 2 342 0 333 -0 c 0
 330 0 325 0 320 0 c 2
 48 0 l 2
 45 0 42 0 40 -0 c 0
 27 0 25 1 25 20 c 2
 25 48 l 2
 25 64 26 65 39 65 c 0
 40 65 42 65 44 65 c 2
 84 65 l 2
 86 65 87 65 89 65 c 0
 114 65 115 66 115 94 c 2
 115 418 l 2
 115 426 115 433 115 438 c 0
 115 451 112 455 90 455 c 2
 46 455 l 2
 25 455 25 455 25 476 c 2
 25 500 l 2
 25 518 28 520 40 520 c 0
 43 520 47 520 52 520 c 2
 92 520 l 2
 113 520 115 523 115 537 c 0
 115 541 115 546 115 552 c 0
 115 683 192 775 342 775 c 0
 396 775 440 766 472 750 c 0
 485 743 492 740 498 740 c 0
 508 740 512 750 530 765 c 0
 568 797 620 815 682 815 c 0
 803 815 880 761 880 694 c 0
 880 641 843 608 798 608 c 0
 753 608 723 638 723 676 c 0
 723 716 751 723 751 738 c 0
 751 750 726 760 684 760 c 0
 624 760 585 697 585 570 c 2
 585 556 l 2
 585 548 584 541 584 536 c 0
 584 526 587 520 604 520 c 2
 674 520 l 2
 682 520 691 521 698 521 c 0
 708 521 715 518 715 504 c 2
 715 486 l 2
 715 479 716 473 716 468 c 0
 716 460 713 455 700 455 c 2
 604 455 l 2
 587 455 585 452 585 442 c 0
 585 438 585 434 585 428 c 2
 585 88 l 2
 585 67 589 65 601 65 c 0
 605 65 611 65 618 65 c 2
 678 65 l 2
 680 65 681 65 683 65 c 0
 704 65 705 64 705 40 c 2
 705 18 l 2
 705 2 701 -1 692 -1 c 0
 687 -1 681 0 674 0 c 2
 410 0 l 2
 408 0 407 0 405 -0 c 0
 386 0 385 1 385 24 c 2
 385 42 l 2
 385 46 385 50 385 53 c 0
 385 63 387 65 402 65 c 2
 440 65 l 2
 453 65 456 69 456 77 c 0
 456 81 455 86 455 92 c 2
 455 424 l 2
 455 429 455 433 455 436 c 0
 455 452 453 455 430 455 c 2
 272 455 l 2
 247 455 245 453 245 433 c 0
 245 430 245 427 245 424 c 6
268 520 m 6
 436 520 l 2
 453 520 456 524 456 534 c 0
 456 539 455 545 455 552 c 0
 455 574 446 567 430 572 c 0
 401 582 383 607 383 636 c 0
 383 676 411 683 411 698 c 0
 411 710 386 720 344 720 c 0
 284 720 245 657 245 530 c 0
 245 516 255 520 268 520 c 6
EndSplineSet
LCarets2: 1 0
Ligature2: "Not your mama's contextual ligatures" f f
EndChar

StartChar: uniFB01
Encoding: 64257 64257 543
Width: 680
VWidth: 1155
Flags: HMW
LayerCount: 2
Fore
SplineSet
640 0 m 6
 400 0 l 2
 381 0 380 1 380 17 c 0
 380 19 380 20 380 22 c 2
 380 46 l 2
 380 63 383 65 394 65 c 0
 398 65 402 65 408 65 c 2
 432 65 l 2
 448 65 451 70 451 80 c 0
 451 85 450 91 450 98 c 2
 450 430 l 2
 450 452 447 455 433 455 c 0
 429 455 423 455 416 455 c 2
 280 455 l 2
 277 455 274 455 271 455 c 0
 248 455 245 453 245 424 c 2
 245 102 l 2
 245 94 244 87 244 82 c 0
 244 70 247 65 268 65 c 2
 310 65 l 2
 315 65 319 65 323 65 c 0
 331 65 335 63 335 50 c 2
 335 16 l 2
 335 2 331 -1 322 -1 c 0
 317 -1 311 0 304 0 c 2
 58 0 l 2
 55 0 52 0 49 -0 c 0
 27 0 25 2 25 30 c 2
 25 48 l 2
 25 63 27 65 37 65 c 0
 40 65 44 65 48 65 c 2
 86 65 l 2
 114 65 115 66 115 91 c 0
 115 93 115 94 115 96 c 2
 115 432 l 2
 115 436 115 440 115 443 c 0
 115 453 113 455 98 455 c 2
 52 455 l 2
 46 455 42 455 38 455 c 0
 28 455 25 457 25 472 c 2
 25 498 l 2
 25 518 28 520 41 520 c 0
 45 520 50 520 56 520 c 2
 82 520 l 2
 85 520 88 520 91 520 c 0
 113 520 115 522 115 550 c 2
 115 572 l 2
 115 703 192 795 352 795 c 0
 483 795 560 741 560 674 c 0
 560 621 523 588 478 588 c 0
 433 588 403 618 403 656 c 0
 403 696 429 701 429 716 c 0
 429 728 396 740 354 740 c 0
 274 740 245 677 245 550 c 0
 245 522 247 520 267 520 c 0
 271 520 275 520 280 520 c 2
 550 520 l 2
 553 520 556 520 559 520 c 0
 578 520 580 518 580 494 c 2
 580 104 l 2
 580 95 579 88 579 82 c 0
 579 70 582 65 602 65 c 2
 646 65 l 2
 648 65 649 65 651 65 c 0
 669 65 670 64 670 42 c 2
 670 12 l 2
 670 1 664 -1 657 -1 c 0
 652 -1 646 0 640 0 c 6
EndSplineSet
LCarets2: 1 0
Ligature2: "Not your mama's contextual ligatures" f i
EndChar

StartChar: uniFB02
Encoding: 64258 64258 544
Width: 710
VWidth: 1155
Flags: HMW
LayerCount: 2
Fore
SplineSet
676 0 m 2
 424 0 l 2
 417 0 412 0 407 -0 c 0
 394 0 390 2 390 24 c 2
 390 48 l 2
 390 63 395 66 404 66 c 0
 409 66 416 65 424 65 c 2
 464 65 l 2
 478 65 481 69 481 78 c 0
 481 82 480 87 480 93 c 2
 480 576 l 2
 480 589 480 588 468 588 c 0
 423 588 393 618 393 656 c 0
 393 696 421 703 421 718 c 0
 421 730 386 740 344 740 c 0
 274 740 245 677 245 550 c 0
 245 547 245 544 245 541 c 0
 245 522 247 520 272 520 c 2
 362 520 l 2
 366 520 370 520 373 520 c 0
 383 520 385 518 385 503 c 2
 385 472 l 2
 385 457 382 455 373 455 c 0
 370 455 365 455 360 455 c 2
 268 455 l 2
 266 455 265 455 263 455 c 0
 246 455 245 454 245 433 c 2
 245 101 l 2
 245 65 246 65 282 65 c 2
 338 65 l 2
 343 65 347 65 350 65 c 0
 363 65 365 63 365 43 c 2
 365 19 l 2
 365 2 362 0 352 -0 c 0
 348 0 344 0 338 0 c 2
 56 0 l 2
 50 0 45 0 41 -0 c 0
 28 0 25 2 25 23 c 2
 25 42 l 2
 25 63 27 65 41 65 c 0
 44 65 48 65 53 65 c 2
 89 65 l 2
 112 65 116 72 116 86 c 0
 116 93 115 101 115 111 c 2
 115 425 l 2
 115 431 115 437 115 441 c 0
 115 451 113 455 96 455 c 2
 48 455 l 2
 45 455 42 455 40 455 c 0
 27 455 25 456 25 474 c 2
 25 496 l 2
 25 519 24 520 48 520 c 2
 88 520 l 2
 115 520 115 520 115 547 c 2
 115 572 l 2
 115 703 192 795 342 795 c 0
 400 795 447 785 482 767 c 0
 498 759 504 752 513 752 c 0
 518 752 525 754 534 759 c 2
 572 780 l 2
 587 788 595 793 601 793 c 0
 610 793 610 781 610 750 c 0
 610 747 610 745 610 742 c 6
 610 105 l 2
 610 98 610 92 610 87 c 0
 610 69 613 65 641 65 c 2
 681 65 l 2
 698 65 700 61 700 51 c 0
 700 47 700 41 700 34 c 0
 700 27 700 22 700 17 c 0
 700 4 698 0 676 0 c 2
EndSplineSet
LCarets2: 1 0
Ligature2: "Not your mama's contextual ligatures" f l
EndChar

StartChar: uniFB03
Encoding: 64259 64259 545
Width: 1035
VWidth: 1155
Flags: HMW
LayerCount: 2
Fore
SplineSet
998 0 m 2
 748 0 l 2
 741 0 735 -1 730 -1 c 0
 720 -1 715 2 715 18 c 2
 715 34 l 2
 715 40 715 45 715 49 c 0
 715 62 717 65 738 65 c 2
 786 65 l 2
 803 65 806 73 806 85 c 0
 806 93 805 102 805 112 c 2
 805 438 l 2
 805 453 802 455 792 455 c 0
 789 455 785 455 781 455 c 2
 622 455 l 2
 620 455 619 455 617 455 c 0
 596 455 595 454 595 430 c 2
 595 106 l 2
 595 97 594 90 594 84 c 0
 594 70 598 65 622 65 c 2
 662 65 l 2
 667 65 672 65 675 65 c 0
 682 65 685 64 685 52 c 2
 685 28 l 2
 685 23 685 19 685 16 c 0
 685 3 683 0 664 0 c 2
 398 0 l 2
 377 0 375 2 375 16 c 0
 375 19 375 23 375 28 c 2
 375 52 l 2
 375 64 380 66 387 66 c 0
 392 66 397 65 404 65 c 2
 448 65 l 2
 463 65 466 72 466 83 c 0
 466 90 465 97 465 106 c 2
 465 437 l 2
 465 453 462 455 452 455 c 0
 448 455 444 455 438 455 c 2
 274 455 l 2
 268 455 262 455 258 455 c 0
 248 455 245 453 245 436 c 2
 245 130 l 2
 245 120 245 112 245 105 c 0
 245 70 249 65 298 65 c 2
 314 65 l 2
 321 65 327 66 332 66 c 0
 340 66 345 63 345 50 c 2
 345 32 l 2
 345 25 346 19 346 14 c 0
 346 5 343 0 328 0 c 2
 48 0 l 2
 45 0 42 0 40 -0 c 0
 27 0 25 1 25 20 c 2
 25 42 l 2
 25 45 25 48 25 50 c 0
 25 63 26 65 44 65 c 2
 92 65 l 2
 113 65 117 76 117 91 c 0
 117 101 115 113 115 126 c 2
 115 434 l 2
 115 454 114 455 97 455 c 0
 95 455 94 455 92 455 c 2
 45 455 l 2
 43 455 41 455 40 455 c 0
 26 455 25 456 25 474 c 2
 25 506 l 2
 25 518 31 520 44 520 c 2
 100 520 l 6
 115 520 115 521 115 536 c 2
 115 552 l 2
 115 683 192 775 342 775 c 0
 396 775 440 766 472 750 c 0
 489 742 502 732 513 721 c 1
 526 736 540 749 558 760 c 0
 595 783 643 795 702 795 c 0
 833 795 910 741 910 674 c 0
 910 621 873 588 828 588 c 0
 783 588 753 618 753 656 c 0
 753 696 779 701 779 716 c 0
 779 728 746 740 704 740 c 0
 624 740 595 677 595 550 c 0
 595 544 595 540 595 536 c 0
 595 523 597 520 618 520 c 2
 912 520 l 2
 914 520 915 520 917 520 c 0
 934 520 935 519 935 498 c 2
 935 114 l 2
 935 103 934 94 934 86 c 0
 934 73 937 65 958 65 c 2
 1000 65 l 2
 1002 65 1003 65 1005 65 c 0
 1024 65 1025 64 1025 42 c 2
 1025 18 l 2
 1025 2 1022 0 1012 -0 c 0
 1008 0 1004 0 998 0 c 2
245 530 m 0
 245 516 252 520 264 520 c 2
 434 520 l 2
 440 520 445 520 449 520 c 0
 462 520 465 522 465 542 c 0
 465 576 455 564 430 572 c 0
 401 582 383 607 383 636 c 0
 383 676 411 683 411 698 c 0
 411 710 386 720 344 720 c 0
 284 720 245 657 245 530 c 0
EndSplineSet
LCarets2: 2 0 0
Ligature2: "Not your mama's contextual ligatures" f f i
EndChar

StartChar: uniFB04
Encoding: 64260 64260 546
Width: 1035
VWidth: 1155
Flags: HMW
LayerCount: 2
Fore
SplineSet
998 0 m 2
 744 0 l 2
 715 0 715 1 715 30 c 2
 715 50 l 2
 715 63 719 65 727 65 c 0
 731 65 735 65 740 65 c 2
 786 65 l 2
 803 65 806 71 806 81 c 0
 806 87 805 94 805 102 c 2
 805 558 l 0
 805 589 l 1
 790 591 778 596 768 604 c 0
 752 616 743 635 743 656 c 0
 743 696 771 703 771 718 c 0
 771 730 736 740 694 740 c 0
 624 740 595 677 595 550 c 0
 595 547 595 544 595 541 c 0
 595 522 597 520 622 520 c 2
 686 520 l 2
 689 520 692 520 695 520 c 0
 713 520 715 518 715 494 c 2
 715 482 l 2
 715 476 716 471 716 467 c 0
 716 460 714 455 702 455 c 2
 614 455 l 2
 597 455 593 445 593 432 c 0
 593 423 595 413 595 402 c 2
 595 104 l 2
 595 97 595 91 595 86 c 0
 595 69 598 65 624 65 c 2
 654 65 l 2
 661 65 667 65 671 65 c 0
 681 65 685 63 685 46 c 2
 685 18 l 2
 685 2 679 -1 669 -1 c 0
 663 -1 655 0 646 0 c 2
 394 0 l 2
 377 0 375 4 375 14 c 0
 375 18 375 24 375 30 c 2
 375 42 l 2
 375 63 378 65 392 65 c 0
 395 65 399 65 404 65 c 2
 446 65 l 2
 463 65 467 75 467 89 c 0
 467 98 465 109 465 120 c 2
 465 426 l 2
 465 429 465 432 465 435 c 0
 465 453 464 455 440 455 c 2
 274 455 l 2
 245 455 245 455 245 426 c 2
 245 102 l 2
 245 97 245 93 245 89 c 0
 245 68 247 65 276 65 c 2
 316 65 l 2
 322 65 328 65 332 65 c 0
 341 65 345 63 345 48 c 2
 345 20 l 2
 345 2 336 -2 324 -2 c 0
 316 -2 306 0 296 0 c 2
 56 0 l 2
 50 0 45 0 41 -0 c 0
 28 0 25 2 25 22 c 2
 25 50 l 2
 25 63 29 65 37 65 c 0
 41 65 45 65 50 65 c 2
 84 65 l 2
 115 65 115 65 115 96 c 2
 115 432 l 2
 115 437 115 441 115 444 c 0
 115 452 113 455 100 455 c 2
 54 455 l 2
 48 455 42 455 38 455 c 0
 28 455 25 457 25 474 c 2
 25 500 l 2
 25 518 27 520 39 520 c 0
 42 520 45 520 50 520 c 2
 84 520 l 2
 115 520 115 521 115 552 c 0
 115 683 192 775 342 775 c 0
 399 775 444 765 476 748 c 0
 497 737 505 732 512 732 c 0
 520 732 526 740 550 756 c 4
 586 781 633 795 692 795 c 0
 746 795 790 786 824 771 c 0
 838 765 845 760 853 760 c 0
 858 760 863 762 872 766 c 2
 904 783 l 2
 915 789 923 797 928 797 c 0
 932 797 935 791 935 774 c 2
 935 108 l 2
 935 98 934 90 934 84 c 0
 934 71 938 65 960 65 c 2
 990 65 l 2
 998 65 1004 66 1009 66 c 0
 1021 66 1025 63 1025 42 c 2
 1025 24 l 2
 1025 1 1024 0 1007 -0 c 0
 1004 0 1001 0 998 0 c 2
245 530 m 0
 245 521 254 519 265 519 c 0
 274 519 283 520 290 520 c 2
 438 520 l 2
 440 520 441 520 443 520 c 0
 464 520 465 521 465 546 c 2
 465 568 l 1
 463 568 460 568 458 568 c 0
 413 568 383 598 383 636 c 0
 383 676 411 683 411 698 c 0
 411 710 386 720 344 720 c 0
 284 720 245 657 245 530 c 0
EndSplineSet
LCarets2: 2 0 0
Ligature2: "Not your mama's contextual ligatures" f f l
EndChar

StartChar: uniFFFD
Encoding: 65533 65533 547
Width: 815
Flags: HMW
LayerCount: 2
Fore
SplineSet
754 0 m 2
 700 0 l 2
 467 0 641 335 405 335 c 2
 326 335 l 2
 318 335 311 335 306 335 c 0
 290 335 285 332 285 305 c 2
 285 111 l 2
 285 108 285 105 285 102 c 0
 285 77 287 75 318 75 c 2
 372 75 l 2
 377 75 382 75 385 75 c 0
 392 75 395 73 395 61 c 2
 395 25 l 2
 395 2 392 0 376 -0 c 0
 373 0 369 0 364 0 c 2
 68 0 l 2
 65 0 62 0 59 -0 c 0
 41 0 40 1 40 25 c 2
 40 55 l 2
 40 73 44 75 54 75 c 0
 58 75 63 75 70 75 c 2
 106 75 l 2
 148 75 150 77 150 113 c 0
 150 116 150 119 150 123 c 2
 150 631 l 2
 150 641 151 648 151 655 c 0
 151 668 147 675 126 675 c 2
 80 675 l 2
 71 675 64 674 58 674 c 0
 45 674 40 678 40 699 c 2
 40 735 l 2
 40 748 47 751 57 751 c 0
 63 751 70 750 78 750 c 6
 455 750 l 2
 646 750 725 670 725 560 c 0
 725 469 685 395 552 372 c 1
 759 320 645 75 746 75 c 2
 768 75 l 2
 771 75 774 75 777 75 c 0
 794 75 795 74 795 51 c 2
 795 23 l 2
 795 3 789 -1 776 -1 c 0
 770 -1 763 0 754 0 c 2
330 415 m 2
 455 415 l 2
 521 415 585 451 585 560 c 0
 585 649 521 675 455 675 c 2
 312 675 l 2
 287 675 285 672 285 655 c 0
 285 651 285 645 285 639 c 2
 285 465 l 2
 285 460 285 455 285 451 c 0
 285 417 287 415 330 415 c 2
EndSplineSet
EndChar
